<?xml version="1.0" standalone="no"?>
<!DOCTYPE svg PUBLIC "-//W3C//DTD SVG 20010904//EN"
 "http://www.w3.org/TR/2001/REC-SVG-20010904/DTD/svg10.dtd">
<svg version="1.0" xmlns="http://www.w3.org/2000/svg"
 width="1280.000000pt" height="910.000000pt" viewBox="0 0 1280.000000 910.000000"
 preserveAspectRatio="xMidYMid meet">
<metadata>
Created by potrace 1.15, written by Peter Selinger 2001-2017
</metadata>
<g transform="translate(0.000000,910.000000) scale(0.100000,-0.100000)"
fill="#ffeb3b" stroke="none">
<path d="M390 9091 c0 -4 -26 -18 -58 -30 -297 -108 -415 -407 -262 -662 l22
-35 -31 -50 c-78 -127 -79 -292 -2 -423 l31 -52 -30 -52 c-74 -131 -77 -266
-10 -401 l39 -79 -29 -51 c-73 -130 -77 -266 -11 -400 l40 -78 -34 -62 c-60
-111 -69 -231 -25 -349 12 -30 30 -67 42 -82 l21 -27 -36 -67 c-48 -88 -65
-185 -49 -271 10 -56 45 -143 73 -181 10 -13 8 -22 -8 -45 -88 -129 -93 -316
-12 -449 30 -48 30 -50 14 -75 -100 -152 -97 -322 7 -490 7 -11 2 -28 -21 -65
-43 -71 -65 -163 -58 -250 5 -55 15 -87 46 -149 l40 -78 -29 -52 c-74 -130
-77 -266 -10 -400 l39 -79 -29 -51 c-43 -76 -64 -167 -56 -248 6 -68 42 -166
73 -201 16 -17 14 -22 -20 -86 -48 -88 -65 -185 -49 -271 10 -56 45 -143 73
-181 10 -13 8 -22 -8 -45 -88 -129 -93 -316 -12 -449 30 -47 30 -50 14 -75
-95 -147 -97 -317 -5 -471 l22 -35 -31 -50 c-43 -70 -65 -163 -58 -249 5 -55
15 -87 46 -149 l40 -78 -29 -52 c-89 -157 -74 -333 41 -483 48 -61 152 -135
229 -162 l55 -19 3 -126 3 -126 6204 0 6205 0 0 4550 0 4550 -6205 0 c-3490 0
-6205 -4 -6205 -9z m660 -56 l0 -45 -44 6 c-24 4 -59 1 -79 -5 -32 -11 -38 -9
-80 19 -25 17 -60 35 -76 41 -61 21 -28 29 124 29 l155 0 0 -45z m330 -100 l0
-145 -115 0 -115 0 0 42 c0 44 -38 121 -65 132 -11 4 -15 20 -15 61 l0 55 155
0 155 0 0 -145z m330 0 l0 -145 -155 0 -155 0 0 145 0 145 155 0 155 0 0 -145z
m330 0 l0 -145 -155 0 -155 0 0 145 0 145 155 0 155 0 0 -145z m330 0 l0 -145
-155 0 -155 0 0 145 0 145 155 0 155 0 0 -145z m340 0 l0 -145 -160 0 -160 0
0 145 0 145 160 0 160 0 0 -145z m320 0 l0 -145 -155 0 -155 0 0 145 0 145
155 0 155 0 0 -145z m340 0 l0 -145 -160 0 -160 0 0 145 0 145 160 0 160 0 0
-145z m320 0 l0 -145 -155 0 -155 0 0 145 0 145 155 0 155 0 0 -145z m340 0
l0 -145 -160 0 -160 0 0 145 0 145 160 0 160 0 0 -145z m320 0 l0 -145 -155 0
-155 0 0 145 0 145 155 0 155 0 0 -145z m340 0 l0 -145 -160 0 -160 0 0 145 0
145 160 0 160 0 0 -145z m320 0 l0 -145 -155 0 -155 0 0 145 0 145 155 0 155
0 0 -145z m340 0 l0 -145 -160 0 -160 0 0 145 0 145 160 0 160 0 0 -145z m330
0 l0 -145 -160 0 -160 0 0 145 0 145 160 0 160 0 0 -145z m330 0 l0 -145 -155
0 -155 0 0 145 0 145 155 0 155 0 0 -145z m330 0 l0 -145 -160 0 -160 0 0 145
0 145 160 0 160 0 0 -145z m330 0 l0 -145 -155 0 -155 0 0 145 0 145 155 0
155 0 0 -145z m330 0 l0 -145 -160 0 -160 0 0 145 0 145 160 0 160 0 0 -145z
m330 0 l0 -145 -155 0 -155 0 0 145 0 145 155 0 155 0 0 -145z m330 0 l0 -145
-160 0 -160 0 0 145 0 145 160 0 160 0 0 -145z m330 0 l0 -145 -155 0 -155 0
0 145 0 145 155 0 155 0 0 -145z m330 0 l0 -145 -160 0 -160 0 0 145 0 145
160 0 160 0 0 -145z m330 0 l0 -145 -155 0 -155 0 0 145 0 145 155 0 155 0 0
-145z m330 0 l0 -145 -155 0 -155 0 0 145 0 145 155 0 155 0 0 -145z m330 0
l0 -145 -155 0 -155 0 0 145 0 145 155 0 155 0 0 -145z m330 0 l0 -145 -155 0
-155 0 0 145 0 145 155 0 155 0 0 -145z m330 0 l0 -145 -155 0 -155 0 0 145 0
145 155 0 155 0 0 -145z m330 0 l0 -145 -155 0 -155 0 0 145 0 145 155 0 155
0 0 -145z m330 0 l0 -145 -155 0 -155 0 0 145 0 145 155 0 155 0 0 -145z m340
0 l0 -145 -160 0 -160 0 0 145 0 145 160 0 160 0 0 -145z m320 0 l0 -145 -155
0 -155 0 0 145 0 145 155 0 155 0 0 -145z m340 0 l0 -145 -160 0 -160 0 0 145
0 145 160 0 160 0 0 -145z m320 0 l0 -145 -155 0 -155 0 0 145 0 145 155 0
155 0 0 -145z m340 0 l0 -145 -160 0 -160 0 0 145 0 145 160 0 160 0 0 -145z
m320 0 l0 -145 -155 0 -155 0 0 145 0 145 155 0 155 0 0 -145z m170 0 l0 -145
-75 0 -75 0 0 145 0 145 75 0 75 0 0 -145z m-12118 39 l58 -17 0 -83 0 -84
-155 0 -155 0 0 90 0 89 33 10 c51 15 156 12 219 -5z m-272 -218 l0 -203 -62
-23 c-35 -12 -79 -32 -99 -45 l-37 -24 -18 42 c-14 30 -19 65 -19 127 0 103
29 174 98 244 39 39 108 84 130 86 4 0 7 -92 7 -204z m394 160 c29 -21 31 -27
28 -75 -4 -51 -4 -51 -38 -51 l-34 0 0 75 c0 41 3 75 7 75 3 0 20 -11 37 -24z
m-64 -260 l0 -113 -62 14 c-43 10 -92 13 -155 10 l-93 -5 0 104 0 104 155 0
155 0 0 -114z m100 104 c0 -19 60 -77 100 -95 34 -15 48 -17 85 -8 l45 10 0
-101 0 -101 -88 0 c-80 0 -91 3 -142 32 -30 18 -61 33 -67 33 -10 0 -13 31
-13 120 l0 120 40 0 c22 0 40 -4 40 -10z m560 -145 l0 -155 -155 0 -155 0 0
106 0 107 35 38 c19 22 35 44 35 49 0 6 47 10 120 10 l120 0 0 -155z m330 0
l0 -155 -155 0 -155 0 0 155 0 155 155 0 155 0 0 -155z m330 0 l0 -155 -155 0
-155 0 0 155 0 155 155 0 155 0 0 -155z m330 0 l0 -155 -155 0 -155 0 0 155 0
155 155 0 155 0 0 -155z m340 0 l0 -155 -160 0 -160 0 0 155 0 155 160 0 160
0 0 -155z m320 0 l0 -155 -155 0 -155 0 0 155 0 155 155 0 155 0 0 -155z m340
0 l0 -155 -160 0 -160 0 0 155 0 155 160 0 160 0 0 -155z m320 0 l0 -155 -155
0 -155 0 0 155 0 155 155 0 155 0 0 -155z m340 0 l0 -155 -160 0 -160 0 0 155
0 155 160 0 160 0 0 -155z m320 0 l0 -155 -155 0 -155 0 0 155 0 155 155 0
155 0 0 -155z m340 0 l0 -155 -160 0 -160 0 0 155 0 155 160 0 160 0 0 -155z
m320 0 l0 -155 -155 0 -155 0 0 155 0 155 155 0 155 0 0 -155z m340 0 l0 -155
-160 0 -160 0 0 155 0 155 160 0 160 0 0 -155z m330 0 l0 -155 -160 0 -160 0
0 155 0 155 160 0 160 0 0 -155z m330 0 l0 -155 -155 0 -155 0 0 155 0 155
155 0 155 0 0 -155z m330 0 l0 -155 -160 0 -160 0 0 155 0 155 160 0 160 0 0
-155z m330 0 l0 -155 -155 0 -155 0 0 155 0 155 155 0 155 0 0 -155z m330 0
l0 -155 -160 0 -160 0 0 155 0 155 160 0 160 0 0 -155z m330 0 l0 -155 -155 0
-155 0 0 155 0 155 155 0 155 0 0 -155z m330 0 l0 -155 -160 0 -160 0 0 155 0
155 160 0 160 0 0 -155z m330 0 l0 -155 -155 0 -155 0 0 155 0 155 155 0 155
0 0 -155z m330 0 l0 -155 -160 0 -160 0 0 155 0 155 160 0 160 0 0 -155z m330
0 l0 -155 -155 0 -155 0 0 155 0 155 155 0 155 0 0 -155z m330 0 l0 -155 -155
0 -155 0 0 155 0 155 155 0 155 0 0 -155z m330 0 l0 -155 -155 0 -155 0 0 155
0 155 155 0 155 0 0 -155z m330 0 l0 -155 -155 0 -155 0 0 155 0 155 155 0
155 0 0 -155z m330 0 l0 -155 -155 0 -155 0 0 155 0 155 155 0 155 0 0 -155z
m330 0 l0 -155 -155 0 -155 0 0 155 0 155 155 0 155 0 0 -155z m330 0 l0 -155
-155 0 -155 0 0 155 0 155 155 0 155 0 0 -155z m340 0 l0 -155 -160 0 -160 0
0 155 0 155 160 0 160 0 0 -155z m320 0 l0 -155 -155 0 -155 0 0 155 0 155
155 0 155 0 0 -155z m340 0 l0 -155 -160 0 -160 0 0 155 0 155 160 0 160 0 0
-155z m320 0 l0 -155 -155 0 -155 0 0 155 0 155 155 0 155 0 0 -155z m340 0
l0 -155 -160 0 -160 0 0 155 0 155 160 0 160 0 0 -155z m320 0 l0 -155 -155 0
-155 0 0 155 0 155 155 0 155 0 0 -155z m170 0 l0 -155 -75 0 -75 0 0 155 0
155 75 0 75 0 0 -155z m-12207 -162 c-13 -2 -35 -2 -50 0 -16 2 -5 4 22 4 28
0 40 -2 28 -4z m131 -19 c14 -5 16 -28 16 -155 l0 -149 -155 0 -155 0 0 155 0
155 139 0 c77 0 146 -3 155 -6z m676 -149 l0 -155 -155 0 c-85 0 -155 4 -155
8 0 5 12 19 26 33 34 31 54 78 54 129 0 45 -30 113 -57 129 -13 7 26 10 135
11 l152 0 0 -155z m330 0 l0 -155 -155 0 -155 0 0 155 0 155 155 0 155 0 0
-155z m330 0 l0 -155 -155 0 -155 0 0 155 0 155 155 0 155 0 0 -155z m330 0
l0 -155 -155 0 -155 0 0 155 0 155 155 0 155 0 0 -155z m340 0 l0 -155 -160 0
-160 0 0 155 0 155 160 0 160 0 0 -155z m320 0 l0 -155 -155 0 -155 0 0 155 0
155 155 0 155 0 0 -155z m340 0 l0 -155 -160 0 -160 0 0 155 0 155 160 0 160
0 0 -155z m320 0 l0 -155 -155 0 -155 0 0 155 0 155 155 0 155 0 0 -155z m340
0 l0 -155 -160 0 -160 0 0 155 0 155 160 0 160 0 0 -155z m320 0 l0 -155 -155
0 -155 0 0 155 0 155 155 0 155 0 0 -155z m340 0 l0 -155 -160 0 -160 0 0 155
0 155 160 0 160 0 0 -155z m320 0 l0 -155 -155 0 -155 0 0 155 0 155 155 0
155 0 0 -155z m340 0 l0 -155 -160 0 -160 0 0 155 0 155 160 0 160 0 0 -155z
m330 0 l0 -155 -160 0 -160 0 0 155 0 155 160 0 160 0 0 -155z m330 0 l0 -155
-155 0 -155 0 0 155 0 155 155 0 155 0 0 -155z m330 0 l0 -155 -160 0 -160 0
0 155 0 155 160 0 160 0 0 -155z m330 0 l0 -155 -155 0 -155 0 0 155 0 155
155 0 155 0 0 -155z m330 0 l0 -155 -160 0 -160 0 0 155 0 155 160 0 160 0 0
-155z m330 0 l0 -155 -155 0 -155 0 0 155 0 155 155 0 155 0 0 -155z m330 0
l0 -155 -160 0 -160 0 0 155 0 155 160 0 160 0 0 -155z m330 0 l0 -155 -155 0
-155 0 0 155 0 155 155 0 155 0 0 -155z m330 0 l0 -155 -160 0 -160 0 0 155 0
155 160 0 160 0 0 -155z m330 0 l0 -155 -155 0 -155 0 0 155 0 155 155 0 155
0 0 -155z m330 0 l0 -155 -155 0 -155 0 0 155 0 155 155 0 155 0 0 -155z m330
0 l0 -155 -155 0 -155 0 0 155 0 155 155 0 155 0 0 -155z m330 0 l0 -155 -155
0 -155 0 0 155 0 155 155 0 155 0 0 -155z m330 0 l0 -155 -155 0 -155 0 0 155
0 155 155 0 155 0 0 -155z m330 0 l0 -155 -155 0 -155 0 0 155 0 155 155 0
155 0 0 -155z m330 0 l0 -155 -155 0 -155 0 0 155 0 155 155 0 155 0 0 -155z
m340 0 l0 -155 -160 0 -160 0 0 155 0 155 160 0 160 0 0 -155z m320 0 l0 -155
-155 0 -155 0 0 155 0 155 155 0 155 0 0 -155z m340 0 l0 -155 -160 0 -160 0
0 155 0 155 160 0 160 0 0 -155z m320 0 l0 -155 -155 0 -155 0 0 155 0 155
155 0 155 0 0 -155z m340 0 l0 -155 -160 0 -160 0 0 155 0 155 160 0 160 0 0
-155z m320 0 l0 -155 -155 0 -155 0 0 155 0 155 155 0 155 0 0 -155z m170 0
l0 -155 -75 0 -75 0 0 155 0 155 75 0 75 0 0 -155z m-12390 80 c0 -36 -2 -65
-5 -65 -26 0 -115 64 -104 74 8 9 94 56 102 56 4 0 7 -29 7 -65z m393 22 c26
-20 29 -29 30 -89 2 -74 19 -106 77 -145 l33 -23 -92 0 -91 0 0 140 c0 77 3
140 8 140 4 0 20 -10 35 -23z m-456 -188 l63 -24 0 -76 0 -76 -42 -12 c-24 -7
-67 -26 -96 -42 -29 -16 -57 -27 -62 -24 -5 3 -16 28 -25 56 -21 62 -16 162
10 226 l17 42 36 -23 c21 -13 65 -34 99 -47z m393 -135 l0 -45 -47 8 c-27 4
-96 8 -155 8 l-108 0 0 37 0 38 155 0 155 0 0 -46z m330 -42 l0 -89 -54 5
c-30 2 -62 -1 -75 -7 -18 -10 -26 -9 -49 7 -15 11 -51 31 -79 46 l-53 26 0 50
0 50 155 0 155 0 0 -88z m330 -67 l0 -155 -113 0 -113 0 -18 40 c-9 22 -28 48
-42 59 -22 18 -24 25 -24 115 l0 96 155 0 155 0 0 -155z m330 0 l0 -155 -155
0 -155 0 0 155 0 155 155 0 155 0 0 -155z m330 0 l0 -155 -155 0 -155 0 0 155
0 155 155 0 155 0 0 -155z m330 0 l0 -155 -155 0 -155 0 0 155 0 155 155 0
155 0 0 -155z m340 0 l0 -155 -160 0 -160 0 0 155 0 155 160 0 160 0 0 -155z
m320 0 l0 -155 -155 0 -155 0 0 155 0 155 155 0 155 0 0 -155z m340 0 l0 -155
-160 0 -160 0 0 155 0 155 160 0 160 0 0 -155z m320 0 l0 -155 -155 0 -155 0
0 155 0 155 155 0 155 0 0 -155z m340 0 l0 -155 -160 0 -160 0 0 155 0 155
160 0 160 0 0 -155z m320 0 l0 -155 -155 0 -155 0 0 155 0 155 155 0 155 0 0
-155z m340 0 l0 -155 -160 0 -160 0 0 155 0 155 160 0 160 0 0 -155z m320 0
l0 -155 -155 0 -155 0 0 155 0 155 155 0 155 0 0 -155z m340 0 l0 -155 -160 0
-160 0 0 155 0 155 160 0 160 0 0 -155z m330 0 l0 -155 -160 0 -160 0 0 155 0
155 160 0 160 0 0 -155z m330 0 l0 -155 -155 0 -155 0 0 155 0 155 155 0 155
0 0 -155z m330 0 l0 -155 -160 0 -160 0 0 155 0 155 160 0 160 0 0 -155z m330
0 l0 -155 -155 0 -155 0 0 155 0 155 155 0 155 0 0 -155z m330 0 l0 -155 -160
0 -160 0 0 155 0 155 160 0 160 0 0 -155z m330 0 l0 -155 -155 0 -155 0 0 155
0 155 155 0 155 0 0 -155z m330 0 l0 -155 -160 0 -160 0 0 155 0 155 160 0
160 0 0 -155z m330 0 l0 -155 -155 0 -155 0 0 155 0 155 155 0 155 0 0 -155z
m330 0 l0 -155 -160 0 -160 0 0 155 0 155 160 0 160 0 0 -155z m330 0 l0 -155
-155 0 -155 0 0 155 0 155 155 0 155 0 0 -155z m330 0 l0 -155 -155 0 -155 0
0 155 0 155 155 0 155 0 0 -155z m330 0 l0 -155 -155 0 -155 0 0 155 0 155
155 0 155 0 0 -155z m330 0 l0 -155 -155 0 -155 0 0 155 0 155 155 0 155 0 0
-155z m330 0 l0 -155 -155 0 -155 0 0 155 0 155 155 0 155 0 0 -155z m330 0
l0 -155 -155 0 -155 0 0 155 0 155 155 0 155 0 0 -155z m330 0 l0 -155 -155 0
-155 0 0 155 0 155 155 0 155 0 0 -155z m340 0 l0 -155 -160 0 -160 0 0 155 0
155 160 0 160 0 0 -155z m320 0 l0 -155 -155 0 -155 0 0 155 0 155 155 0 155
0 0 -155z m340 0 l0 -155 -160 0 -160 0 0 155 0 155 160 0 160 0 0 -155z m320
0 l0 -155 -155 0 -155 0 0 155 0 155 155 0 155 0 0 -155z m340 0 l0 -155 -160
0 -160 0 0 155 0 155 160 0 160 0 0 -155z m320 0 l0 -155 -155 0 -155 0 0 155
0 155 155 0 155 0 0 -155z m170 0 l0 -155 -75 0 -75 0 0 155 0 155 75 0 75 0
0 -155z m-12107 -41 l47 -16 0 -49 0 -49 -155 0 -155 0 0 55 c0 48 3 57 23 65
38 15 189 12 240 -6z m-287 -142 c-7 -6 -98 49 -103 63 -2 6 21 25 49 43 l53
32 3 -66 c2 -37 1 -69 -2 -72z m432 63 c1 -1 0 -10 -4 -19 -4 -10 -18 -16 -40
-16 -34 0 -34 0 -34 46 l0 46 38 -28 c20 -15 38 -28 40 -29z m-98 -200 l0
-146 -37 8 c-21 4 -91 8 -156 8 l-117 0 0 138 0 137 155 0 155 0 0 -145z m93
105 c3 -23 17 -57 32 -76 36 -48 85 -67 152 -62 l53 5 0 -69 0 -69 -152 3
-153 3 -3 153 -3 152 34 0 c33 0 35 -2 40 -40z m567 -115 l0 -155 -155 0 -155
0 0 73 c0 67 3 76 26 98 31 28 54 77 54 114 l0 25 115 0 115 0 0 -155z m330 0
l0 -155 -155 0 -155 0 0 155 0 155 155 0 155 0 0 -155z m330 0 l0 -155 -155 0
-155 0 0 155 0 155 155 0 155 0 0 -155z m330 0 l0 -155 -155 0 -155 0 0 155 0
155 155 0 155 0 0 -155z m340 0 l0 -155 -160 0 -160 0 0 155 0 155 160 0 160
0 0 -155z m320 0 l0 -155 -155 0 -155 0 0 155 0 155 155 0 155 0 0 -155z m340
0 l0 -155 -160 0 -160 0 0 155 0 155 160 0 160 0 0 -155z m320 0 l0 -155 -155
0 -155 0 0 155 0 155 155 0 155 0 0 -155z m340 0 l0 -155 -160 0 -160 0 0 155
0 155 160 0 160 0 0 -155z m320 0 l0 -155 -155 0 -155 0 0 155 0 155 155 0
155 0 0 -155z m340 0 l0 -155 -160 0 -160 0 0 155 0 155 160 0 160 0 0 -155z
m320 0 l0 -155 -155 0 -155 0 0 155 0 155 155 0 155 0 0 -155z m340 0 l0 -155
-160 0 -160 0 0 155 0 155 160 0 160 0 0 -155z m330 0 l0 -155 -160 0 -160 0
0 155 0 155 160 0 160 0 0 -155z m330 0 l0 -155 -155 0 -155 0 0 155 0 155
155 0 155 0 0 -155z m330 0 l0 -155 -160 0 -160 0 0 155 0 155 160 0 160 0 0
-155z m330 0 l0 -155 -155 0 -155 0 0 155 0 155 155 0 155 0 0 -155z m330 0
l0 -155 -160 0 -160 0 0 155 0 155 160 0 160 0 0 -155z m330 0 l0 -155 -155 0
-155 0 0 155 0 155 155 0 155 0 0 -155z m330 0 l0 -155 -160 0 -160 0 0 155 0
155 160 0 160 0 0 -155z m330 0 l0 -155 -155 0 -155 0 0 155 0 155 155 0 155
0 0 -155z m330 0 l0 -155 -160 0 -160 0 0 155 0 155 160 0 160 0 0 -155z m330
0 l0 -155 -155 0 -155 0 0 155 0 155 155 0 155 0 0 -155z m330 0 l0 -155 -155
0 -155 0 0 155 0 155 155 0 155 0 0 -155z m330 0 l0 -155 -155 0 -155 0 0 155
0 155 155 0 155 0 0 -155z m330 0 l0 -155 -155 0 -155 0 0 155 0 155 155 0
155 0 0 -155z m330 0 l0 -155 -155 0 -155 0 0 155 0 155 155 0 155 0 0 -155z
m330 0 l0 -155 -155 0 -155 0 0 155 0 155 155 0 155 0 0 -155z m330 0 l0 -155
-155 0 -155 0 0 155 0 155 155 0 155 0 0 -155z m340 0 l0 -155 -160 0 -160 0
0 155 0 155 160 0 160 0 0 -155z m320 0 l0 -155 -155 0 -155 0 0 155 0 155
155 0 155 0 0 -155z m340 0 l0 -155 -160 0 -160 0 0 155 0 155 160 0 160 0 0
-155z m320 0 l0 -155 -155 0 -155 0 0 155 0 155 155 0 155 0 0 -155z m340 0
l0 -155 -160 0 -160 0 0 155 0 155 160 0 160 0 0 -155z m320 0 l0 -155 -155 0
-155 0 0 155 0 155 155 0 155 0 0 -155z m170 0 l0 -155 -75 0 -75 0 0 155 0
155 75 0 75 0 0 -155z m-12427 35 l37 -12 0 -77 0 -78 -42 -12 c-24 -7 -67
-26 -97 -42 -29 -16 -57 -26 -61 -24 -17 10 -40 101 -40 156 0 34 9 81 21 113
l20 55 62 -33 c34 -19 79 -39 100 -46z m697 -234 c0 -22 -3 -23 -49 -18 -27 2
-63 0 -80 -6 -19 -7 -33 -7 -36 -1 -4 5 -23 18 -43 29 l-37 19 123 1 c122 0
122 0 122 -24z m330 -131 l0 -155 -130 0 -131 0 16 30 c31 60 13 151 -39 199
-16 15 -26 35 -26 53 l0 28 155 0 155 0 0 -155z m330 0 l0 -155 -155 0 -155 0
0 155 0 155 155 0 155 0 0 -155z m330 0 l0 -155 -155 0 -155 0 0 155 0 155
155 0 155 0 0 -155z m330 0 l0 -155 -155 0 -155 0 0 155 0 155 155 0 155 0 0
-155z m340 0 l0 -155 -160 0 -160 0 0 155 0 155 160 0 160 0 0 -155z m320 0
l0 -155 -155 0 -155 0 0 155 0 155 155 0 155 0 0 -155z m340 0 l0 -155 -160 0
-160 0 0 155 0 155 160 0 160 0 0 -155z m320 0 l0 -155 -155 0 -155 0 0 155 0
155 155 0 155 0 0 -155z m340 0 l0 -155 -160 0 -160 0 0 155 0 155 160 0 160
0 0 -155z m320 0 l0 -155 -155 0 -155 0 0 155 0 155 155 0 155 0 0 -155z m340
0 l0 -155 -160 0 -160 0 0 155 0 155 160 0 160 0 0 -155z m320 0 l0 -155 -155
0 -155 0 0 155 0 155 155 0 155 0 0 -155z m340 0 l0 -155 -160 0 -160 0 0 155
0 155 160 0 160 0 0 -155z m330 0 l0 -155 -160 0 -160 0 0 155 0 155 160 0
160 0 0 -155z m330 0 l0 -155 -155 0 -155 0 0 155 0 155 155 0 155 0 0 -155z
m330 0 l0 -155 -160 0 -160 0 0 155 0 155 160 0 160 0 0 -155z m330 0 l0 -155
-155 0 -155 0 0 155 0 155 155 0 155 0 0 -155z m330 0 l0 -155 -160 0 -160 0
0 155 0 155 160 0 160 0 0 -155z m330 0 l0 -155 -155 0 -155 0 0 155 0 155
155 0 155 0 0 -155z m330 0 l0 -155 -160 0 -160 0 0 155 0 155 160 0 160 0 0
-155z m330 0 l0 -155 -155 0 -155 0 0 155 0 155 155 0 155 0 0 -155z m330 0
l0 -155 -160 0 -160 0 0 155 0 155 160 0 160 0 0 -155z m330 0 l0 -155 -155 0
-155 0 0 155 0 155 155 0 155 0 0 -155z m330 0 l0 -155 -155 0 -155 0 0 155 0
155 155 0 155 0 0 -155z m330 0 l0 -155 -155 0 -155 0 0 155 0 155 155 0 155
0 0 -155z m330 0 l0 -155 -155 0 -155 0 0 155 0 155 155 0 155 0 0 -155z m330
0 l0 -155 -155 0 -155 0 0 155 0 155 155 0 155 0 0 -155z m330 0 l0 -155 -155
0 -155 0 0 155 0 155 155 0 155 0 0 -155z m330 0 l0 -155 -155 0 -155 0 0 155
0 155 155 0 155 0 0 -155z m340 0 l0 -155 -160 0 -160 0 0 155 0 155 160 0
160 0 0 -155z m320 0 l0 -155 -155 0 -155 0 0 155 0 155 155 0 155 0 0 -155z
m340 0 l0 -155 -160 0 -160 0 0 155 0 155 160 0 160 0 0 -155z m320 0 l0 -155
-155 0 -155 0 0 155 0 155 155 0 155 0 0 -155z m340 0 l0 -155 -160 0 -160 0
0 155 0 155 160 0 160 0 0 -155z m320 0 l0 -155 -155 0 -155 0 0 155 0 155
155 0 155 0 0 -155z m170 0 l0 -155 -75 0 -75 0 0 155 0 155 75 0 75 0 0 -155z
m-12105 91 l40 -12 3 -117 3 -117 -156 0 -155 0 0 124 0 125 48 6 c26 4 52 8
57 10 15 6 115 -6 160 -19z m-285 -76 c0 -62 -2 -69 -17 -63 -32 12 -93 53
-93 63 0 7 95 69 108 70 1 0 2 -31 2 -70z m422 -54 c-3 -36 1 -62 12 -84 l17
-32 -51 0 -50 0 0 110 0 110 38 -25 c38 -25 39 -26 34 -79z m-574 -71 c20 -13
63 -34 95 -46 l57 -22 0 -78 c0 -65 -3 -79 -16 -79 -21 0 -112 -39 -146 -62
-16 -11 -32 -17 -38 -13 -21 13 -42 118 -38 184 5 54 32 141 45 141 2 0 20
-11 41 -25z m482 -146 l0 -81 -32 9 c-18 4 -88 8 -156 8 l-122 0 0 73 0 72
155 0 155 0 0 -81z m174 55 c39 -22 56 -26 102 -22 l54 5 0 -103 0 -102 -35 8
c-32 7 -99 -1 -112 -14 -3 -3 -20 6 -37 19 -18 13 -53 34 -79 45 l-47 21 0 84
0 85 54 0 c39 0 66 -7 100 -26z m486 -134 l0 -160 -122 0 -122 0 -33 32 -33
32 0 114 c0 98 3 117 18 128 12 10 56 13 155 14 l137 0 0 -160z m330 0 l0
-160 -155 0 -155 0 0 160 0 160 155 0 155 0 0 -160z m330 0 l0 -160 -155 0
-155 0 0 160 0 160 155 0 155 0 0 -160z m330 0 l0 -160 -155 0 -155 0 0 160 0
160 155 0 155 0 0 -160z m338 3 l-3 -158 -157 -3 -158 -3 0 161 0 160 160 0
161 0 -3 -157z m322 -3 l0 -160 -155 0 -155 0 0 160 0 160 155 0 155 0 0 -160z
m338 3 l-3 -158 -157 -3 -158 -3 0 161 0 160 160 0 161 0 -3 -157z m322 -3 l0
-160 -155 0 -155 0 0 160 0 160 155 0 155 0 0 -160z m338 3 l-3 -158 -157 -3
-158 -3 0 161 0 160 160 0 161 0 -3 -157z m322 -3 l0 -160 -155 0 -155 0 0
160 0 160 155 0 155 0 0 -160z m338 3 l-3 -158 -157 -3 -158 -3 0 161 0 160
160 0 161 0 -3 -157z m322 -3 l0 -160 -155 0 -155 0 0 160 0 160 155 0 155 0
0 -160z m338 3 l-3 -158 -157 -3 -158 -3 0 161 0 160 160 0 161 0 -3 -157z
m332 -3 l0 -160 -160 0 -160 0 0 160 0 160 160 0 160 0 0 -160z m328 3 l-3
-158 -152 -3 -153 -3 0 161 0 160 155 0 156 0 -3 -157z m332 -3 l0 -160 -160
0 -160 0 0 160 0 160 160 0 160 0 0 -160z m328 3 l-3 -158 -152 -3 -153 -3 0
161 0 160 155 0 156 0 -3 -157z m332 -3 l0 -160 -160 0 -160 0 0 160 0 160
160 0 160 0 0 -160z m328 3 l-3 -158 -152 -3 -153 -3 0 161 0 160 155 0 156 0
-3 -157z m332 -3 l0 -160 -160 0 -160 0 0 160 0 160 160 0 160 0 0 -160z m328
3 l-3 -158 -152 -3 -153 -3 0 161 0 160 155 0 156 0 -3 -157z m332 -3 l0 -160
-160 0 -160 0 0 160 0 160 160 0 160 0 0 -160z m330 0 l0 -160 -155 0 -155 0
0 160 0 160 155 0 155 0 0 -160z m330 0 l0 -160 -155 0 -155 0 0 160 0 160
155 0 155 0 0 -160z m330 0 l0 -160 -155 0 -155 0 0 160 0 160 155 0 155 0 0
-160z m330 0 l0 -160 -155 0 -155 0 0 160 0 160 155 0 155 0 0 -160z m330 0
l0 -160 -155 0 -155 0 0 160 0 160 155 0 155 0 0 -160z m330 0 l0 -160 -155 0
-155 0 0 160 0 160 155 0 155 0 0 -160z m330 0 l0 -160 -155 0 -155 0 0 160 0
160 155 0 155 0 0 -160z m338 3 l-3 -158 -157 -3 -158 -3 0 161 0 160 160 0
161 0 -3 -157z m322 -3 l0 -160 -155 0 -155 0 0 160 0 160 155 0 155 0 0 -160z
m338 3 l-3 -158 -157 -3 -158 -3 0 161 0 160 160 0 161 0 -3 -157z m322 -3 l0
-160 -155 0 -155 0 0 160 0 160 155 0 155 0 0 -160z m338 3 l-3 -158 -157 -3
-158 -3 0 161 0 160 160 0 161 0 -3 -157z m322 -3 l0 -160 -155 0 -155 0 0
160 0 160 155 0 155 0 0 -160z m170 0 l0 -160 -75 0 -75 0 0 160 0 160 75 0
75 0 0 -160z m-12104 -103 c27 -10 40 -21 42 -35 3 -22 1 -22 -152 -22 l-156
0 0 30 c0 26 4 30 38 35 20 4 42 8 47 11 19 7 141 -6 181 -19z m-286 -78 l0
-71 -52 30 c-29 16 -53 36 -53 43 0 10 85 67 103 69 1 0 2 -32 2 -71z m390 26
c0 -3 -9 -5 -20 -5 -11 0 -20 7 -20 15 0 13 4 14 20 5 11 -6 20 -13 20 -15z
m-60 -170 l0 -155 -155 0 -155 0 0 155 0 155 155 0 155 0 0 -155z m92 92 c-3
-47 1 -65 22 -101 35 -60 98 -91 167 -83 l49 6 0 -34 0 -35 -155 0 -155 0 0
156 0 155 38 -3 37 -3 -3 -58z m568 -92 l0 -155 -155 0 -155 0 0 45 c0 34 5
47 20 55 11 6 29 29 41 52 17 34 20 53 16 100 l-5 58 119 0 119 0 0 -155z
m330 0 l0 -155 -155 0 -155 0 0 155 0 155 155 0 155 0 0 -155z m330 0 l0 -155
-155 0 -155 0 0 155 0 155 155 0 155 0 0 -155z m330 0 l0 -155 -155 0 -155 0
0 155 0 155 155 0 155 0 0 -155z m338 -2 l3 -153 -161 0 -160 0 0 155 0 156
158 -3 157 -3 3 -152z m322 2 l0 -155 -155 0 -155 0 0 155 0 155 155 0 155 0
0 -155z m338 -2 l3 -153 -161 0 -160 0 0 155 0 156 158 -3 157 -3 3 -152z
m322 2 l0 -155 -155 0 -155 0 0 155 0 155 155 0 155 0 0 -155z m338 -2 l3
-153 -161 0 -160 0 0 155 0 156 158 -3 157 -3 3 -152z m322 2 l0 -155 -155 0
-155 0 0 155 0 155 155 0 155 0 0 -155z m338 -2 l3 -153 -161 0 -160 0 0 155
0 156 158 -3 157 -3 3 -152z m322 2 l0 -155 -155 0 -155 0 0 155 0 155 155 0
155 0 0 -155z m338 -2 l3 -153 -161 0 -160 0 0 155 0 156 158 -3 157 -3 3
-152z m332 2 l0 -155 -160 0 -160 0 0 155 0 155 160 0 160 0 0 -155z m328 -2
l3 -153 -156 0 -155 0 0 155 0 156 153 -3 152 -3 3 -152z m332 2 l0 -155 -160
0 -160 0 0 155 0 155 160 0 160 0 0 -155z m328 -2 l3 -153 -156 0 -155 0 0
155 0 156 153 -3 152 -3 3 -152z m332 2 l0 -155 -160 0 -160 0 0 155 0 155
160 0 160 0 0 -155z m328 -2 l3 -153 -156 0 -155 0 0 155 0 156 153 -3 152 -3
3 -152z m332 2 l0 -155 -160 0 -160 0 0 155 0 155 160 0 160 0 0 -155z m328
-2 l3 -153 -156 0 -155 0 0 155 0 156 153 -3 152 -3 3 -152z m332 2 l0 -155
-160 0 -160 0 0 155 0 155 160 0 160 0 0 -155z m330 0 l0 -155 -155 0 -155 0
0 155 0 155 155 0 155 0 0 -155z m330 0 l0 -155 -155 0 -155 0 0 155 0 155
155 0 155 0 0 -155z m330 0 l0 -155 -155 0 -155 0 0 155 0 155 155 0 155 0 0
-155z m330 0 l0 -155 -155 0 -155 0 0 155 0 155 155 0 155 0 0 -155z m330 0
l0 -155 -155 0 -155 0 0 155 0 155 155 0 155 0 0 -155z m330 0 l0 -155 -155 0
-155 0 0 155 0 155 155 0 155 0 0 -155z m330 0 l0 -155 -155 0 -155 0 0 155 0
155 155 0 155 0 0 -155z m338 -2 l3 -153 -161 0 -160 0 0 155 0 156 158 -3
157 -3 3 -152z m322 2 l0 -155 -155 0 -155 0 0 155 0 155 155 0 155 0 0 -155z
m338 -2 l3 -153 -161 0 -160 0 0 155 0 156 158 -3 157 -3 3 -152z m322 2 l0
-155 -155 0 -155 0 0 155 0 155 155 0 155 0 0 -155z m338 -2 l3 -153 -161 0
-160 0 0 155 0 156 158 -3 157 -3 3 -152z m322 2 l0 -155 -155 0 -155 0 0 155
0 155 155 0 155 0 0 -155z m170 0 l0 -155 -75 0 -75 0 0 155 0 155 75 0 75 0
0 -155z m-12542 22 c20 -13 62 -33 92 -44 l55 -21 0 -77 0 -77 -61 -22 c-33
-12 -77 -32 -97 -45 l-36 -22 -18 38 c-23 52 -24 203 -1 256 9 20 20 37 23 37
3 0 22 -11 43 -23z m277 -202 c-26 -9 -105 -12 -105 -4 0 5 26 9 58 8 31 0 53
-2 47 -4z m205 -11 c0 -11 -6 -14 -22 -8 -13 4 -54 11 -93 14 l-70 7 93 2 c77
1 92 -1 92 -15z m330 -43 l0 -60 -32 11 c-23 8 -43 8 -78 -1 -45 -11 -48 -11
-105 23 -32 20 -67 38 -77 42 -10 3 -18 14 -18 25 0 18 8 19 155 19 l155 0 0
-59z m330 -101 l0 -160 -115 0 -115 0 0 45 c0 52 -16 89 -54 124 -23 21 -26
33 -26 88 l0 63 155 0 155 0 0 -160z m330 0 l0 -160 -155 0 -155 0 0 160 0
160 155 0 155 0 0 -160z m330 0 l0 -160 -155 0 -155 0 0 160 0 160 155 0 155
0 0 -160z m330 0 l0 -160 -155 0 -155 0 0 160 0 160 155 0 155 0 0 -160z m338
3 l-3 -158 -157 -3 -158 -3 0 161 0 160 160 0 161 0 -3 -157z m322 -3 l0 -161
-152 3 -153 3 -3 158 -3 157 156 0 155 0 0 -160z m338 3 l-3 -158 -157 -3
-158 -3 0 161 0 160 160 0 161 0 -3 -157z m322 -3 l0 -161 -152 3 -153 3 -3
158 -3 157 156 0 155 0 0 -160z m338 3 l-3 -158 -157 -3 -158 -3 0 161 0 160
160 0 161 0 -3 -157z m322 -3 l0 -161 -152 3 -153 3 -3 158 -3 157 156 0 155
0 0 -160z m338 3 l-3 -158 -157 -3 -158 -3 0 161 0 160 160 0 161 0 -3 -157z
m322 -3 l0 -161 -152 3 -153 3 -3 158 -3 157 156 0 155 0 0 -160z m338 3 l-3
-158 -157 -3 -158 -3 0 161 0 160 160 0 161 0 -3 -157z m332 -3 l0 -161 -157
3 -158 3 -3 158 -3 157 161 0 160 0 0 -160z m328 3 l-3 -158 -152 -3 -153 -3
0 161 0 160 155 0 156 0 -3 -157z m332 -3 l0 -161 -157 3 -158 3 -3 158 -3
157 161 0 160 0 0 -160z m328 3 l-3 -158 -152 -3 -153 -3 0 161 0 160 155 0
156 0 -3 -157z m332 -3 l0 -161 -157 3 -158 3 -3 158 -3 157 161 0 160 0 0
-160z m328 3 l-3 -158 -152 -3 -153 -3 0 161 0 160 155 0 156 0 -3 -157z m332
-3 l0 -161 -157 3 -158 3 -3 158 -3 157 161 0 160 0 0 -160z m328 3 l-3 -158
-152 -3 -153 -3 0 161 0 160 155 0 156 0 -3 -157z m332 -3 l0 -161 -157 3
-158 3 -3 158 -3 157 161 0 160 0 0 -160z m330 0 l0 -160 -155 0 -155 0 0 160
0 160 155 0 155 0 0 -160z m330 0 l0 -160 -155 0 -155 0 0 160 0 160 155 0
155 0 0 -160z m330 0 l0 -160 -155 0 -155 0 0 160 0 160 155 0 155 0 0 -160z
m330 0 l0 -160 -155 0 -155 0 0 160 0 160 155 0 155 0 0 -160z m330 0 l0 -160
-155 0 -155 0 0 160 0 160 155 0 155 0 0 -160z m330 0 l0 -160 -155 0 -155 0
0 160 0 160 155 0 155 0 0 -160z m330 0 l0 -160 -155 0 -155 0 0 160 0 160
155 0 155 0 0 -160z m338 3 l-3 -158 -157 -3 -158 -3 0 161 0 160 160 0 161 0
-3 -157z m322 -3 l0 -161 -152 3 -153 3 -3 158 -3 157 156 0 155 0 0 -160z
m338 3 l-3 -158 -157 -3 -158 -3 0 161 0 160 160 0 161 0 -3 -157z m322 -3 l0
-161 -152 3 -153 3 -3 158 -3 157 156 0 155 0 0 -160z m338 3 l-3 -158 -157
-3 -158 -3 0 161 0 160 160 0 161 0 -3 -157z m322 -3 l0 -161 -152 3 -153 3
-3 158 -3 157 156 0 155 0 0 -160z m170 0 l0 -160 -75 0 -75 0 0 160 0 160 75
0 75 0 0 -160z m-12097 27 l37 -16 0 -86 0 -86 -152 3 -153 3 -3 92 c-3 89 -2
93 20 97 13 3 32 7 43 10 38 9 170 -2 208 -17z m-293 -77 l0 -70 -37 19 c-67
34 -79 47 -65 64 11 12 88 57 100 57 1 0 2 -32 2 -70z m419 5 c4 -5 5 -34 3
-62 -4 -53 -4 -53 -38 -53 l-34 0 0 81 0 80 31 -18 c17 -10 34 -22 38 -28z
m-535 -145 c42 -22 86 -40 97 -40 17 0 19 -7 19 -79 l0 -79 -37 -12 c-21 -7
-66 -27 -99 -45 l-62 -33 -18 41 c-25 55 -26 195 -2 250 10 20 19 37 21 37 2
0 38 -18 81 -40z m446 -96 c0 -107 -1 -116 -17 -109 -43 17 -144 26 -215 20
l-78 -7 0 106 0 106 155 0 155 0 0 -116z m113 84 c30 -56 81 -83 154 -83 l63
0 0 -95 0 -95 -88 0 c-76 0 -93 3 -132 26 -25 15 -55 30 -67 33 -22 7 -23 12
-23 127 l0 119 38 0 c32 0 40 -5 55 -32z m547 -123 l0 -155 -155 0 -155 0 0
108 c0 106 0 107 29 135 17 15 33 36 36 47 6 18 16 20 126 20 l119 0 0 -155z
m330 0 l0 -155 -155 0 -155 0 0 155 0 155 155 0 155 0 0 -155z m330 0 l0 -155
-155 0 -155 0 0 155 0 155 155 0 155 0 0 -155z m330 0 l0 -155 -155 0 -155 0
0 155 0 155 155 0 155 0 0 -155z m340 0 l0 -155 -160 0 -160 0 0 155 0 155
160 0 160 0 0 -155z m320 0 l0 -155 -155 0 -155 0 0 155 0 155 155 0 155 0 0
-155z m340 0 l0 -155 -160 0 -160 0 0 155 0 155 160 0 160 0 0 -155z m320 0
l0 -155 -155 0 -155 0 0 155 0 155 155 0 155 0 0 -155z m340 0 l0 -155 -160 0
-160 0 0 155 0 155 160 0 160 0 0 -155z m320 0 l0 -155 -155 0 -155 0 0 155 0
155 155 0 155 0 0 -155z m340 0 l0 -155 -160 0 -160 0 0 155 0 155 160 0 160
0 0 -155z m320 0 l0 -155 -155 0 -155 0 0 155 0 155 155 0 155 0 0 -155z m340
0 l0 -155 -160 0 -160 0 0 155 0 155 160 0 160 0 0 -155z m330 0 l0 -155 -160
0 -160 0 0 155 0 155 160 0 160 0 0 -155z m330 0 l0 -155 -155 0 -155 0 0 155
0 155 155 0 155 0 0 -155z m330 0 l0 -155 -160 0 -160 0 0 155 0 155 160 0
160 0 0 -155z m330 0 l0 -155 -155 0 -155 0 0 155 0 155 155 0 155 0 0 -155z
m330 0 l0 -155 -160 0 -160 0 0 155 0 155 160 0 160 0 0 -155z m330 0 l0 -155
-155 0 -155 0 0 155 0 155 155 0 155 0 0 -155z m330 0 l0 -155 -160 0 -160 0
0 155 0 155 160 0 160 0 0 -155z m330 0 l0 -155 -155 0 -155 0 0 155 0 155
155 0 155 0 0 -155z m330 0 l0 -155 -160 0 -160 0 0 155 0 155 160 0 160 0 0
-155z m330 0 l0 -155 -155 0 -155 0 0 155 0 155 155 0 155 0 0 -155z m330 0
l0 -155 -155 0 -155 0 0 155 0 155 155 0 155 0 0 -155z m330 0 l0 -155 -155 0
-155 0 0 155 0 155 155 0 155 0 0 -155z m330 0 l0 -155 -155 0 -155 0 0 155 0
155 155 0 155 0 0 -155z m330 0 l0 -155 -155 0 -155 0 0 155 0 155 155 0 155
0 0 -155z m330 0 l0 -155 -155 0 -155 0 0 155 0 155 155 0 155 0 0 -155z m330
0 l0 -155 -155 0 -155 0 0 155 0 155 155 0 155 0 0 -155z m340 0 l0 -155 -160
0 -160 0 0 155 0 155 160 0 160 0 0 -155z m320 0 l0 -155 -155 0 -155 0 0 155
0 155 155 0 155 0 0 -155z m340 0 l0 -155 -160 0 -160 0 0 155 0 155 160 0
160 0 0 -155z m320 0 l0 -155 -155 0 -155 0 0 155 0 155 155 0 155 0 0 -155z
m340 0 l0 -155 -160 0 -160 0 0 155 0 155 160 0 160 0 0 -155z m320 0 l0 -155
-155 0 -155 0 0 155 0 155 155 0 155 0 0 -155z m170 0 l0 -155 -75 0 -75 0 0
155 0 155 75 0 75 0 0 -155z m-12082 -181 c22 -6 22 -9 22 -160 l0 -155 -152
3 -153 3 -3 158 -3 157 133 0 c73 0 143 -3 156 -6z m682 -154 l0 -160 -155 0
c-169 0 -179 4 -129 51 38 36 54 72 54 126 0 49 -25 105 -59 130 -13 10 13 12
137 13 l152 0 0 -160z m330 0 l0 -160 -155 0 -155 0 0 160 0 160 155 0 155 0
0 -160z m330 0 l0 -160 -155 0 -155 0 0 160 0 160 155 0 155 0 0 -160z m330 0
l0 -160 -155 0 -155 0 0 160 0 160 155 0 155 0 0 -160z m338 3 l-3 -158 -157
-3 -158 -3 0 161 0 160 160 0 161 0 -3 -157z m322 -3 l0 -161 -152 3 -153 3
-3 158 -3 157 156 0 155 0 0 -160z m338 3 l-3 -158 -157 -3 -158 -3 0 161 0
160 160 0 161 0 -3 -157z m322 -3 l0 -161 -152 3 -153 3 -3 158 -3 157 156 0
155 0 0 -160z m338 3 l-3 -158 -157 -3 -158 -3 0 161 0 160 160 0 161 0 -3
-157z m322 -3 l0 -161 -152 3 -153 3 -3 158 -3 157 156 0 155 0 0 -160z m338
3 l-3 -158 -157 -3 -158 -3 0 161 0 160 160 0 161 0 -3 -157z m322 -3 l0 -161
-152 3 -153 3 -3 158 -3 157 156 0 155 0 0 -160z m338 3 l-3 -158 -157 -3
-158 -3 0 161 0 160 160 0 161 0 -3 -157z m332 -3 l0 -161 -157 3 -158 3 -3
158 -3 157 161 0 160 0 0 -160z m328 3 l-3 -158 -152 -3 -153 -3 0 161 0 160
155 0 156 0 -3 -157z m332 -3 l0 -161 -157 3 -158 3 -3 158 -3 157 161 0 160
0 0 -160z m328 3 l-3 -158 -152 -3 -153 -3 0 161 0 160 155 0 156 0 -3 -157z
m332 -3 l0 -161 -157 3 -158 3 -3 158 -3 157 161 0 160 0 0 -160z m328 3 l-3
-158 -152 -3 -153 -3 0 161 0 160 155 0 156 0 -3 -157z m332 -3 l0 -161 -157
3 -158 3 -3 158 -3 157 161 0 160 0 0 -160z m328 3 l-3 -158 -152 -3 -153 -3
0 161 0 160 155 0 156 0 -3 -157z m332 -3 l0 -161 -157 3 -158 3 -3 158 -3
157 161 0 160 0 0 -160z m330 0 l0 -160 -155 0 -155 0 0 160 0 160 155 0 155
0 0 -160z m330 0 l0 -160 -155 0 -155 0 0 160 0 160 155 0 155 0 0 -160z m330
0 l0 -160 -155 0 -155 0 0 160 0 160 155 0 155 0 0 -160z m330 0 l0 -160 -155
0 -155 0 0 160 0 160 155 0 155 0 0 -160z m330 0 l0 -160 -155 0 -155 0 0 160
0 160 155 0 155 0 0 -160z m330 0 l0 -160 -155 0 -155 0 0 160 0 160 155 0
155 0 0 -160z m330 0 l0 -160 -155 0 -155 0 0 160 0 160 155 0 155 0 0 -160z
m338 3 l-3 -158 -157 -3 -158 -3 0 161 0 160 160 0 161 0 -3 -157z m322 -3 l0
-161 -152 3 -153 3 -3 158 -3 157 156 0 155 0 0 -160z m338 3 l-3 -158 -157
-3 -158 -3 0 161 0 160 160 0 161 0 -3 -157z m322 -3 l0 -161 -152 3 -153 3
-3 158 -3 157 156 0 155 0 0 -160z m338 3 l-3 -158 -157 -3 -158 -3 0 161 0
160 160 0 161 0 -3 -157z m322 -3 l0 -161 -152 3 -153 3 -3 158 -3 157 156 0
155 0 0 -160z m170 0 l0 -160 -75 0 -75 0 0 160 0 160 75 0 75 0 0 -160z
m-12390 79 l0 -71 -32 19 c-64 38 -78 48 -78 56 0 8 89 67 102 67 4 0 8 -32 8
-71z m394 27 c27 -21 30 -28 27 -79 -3 -78 23 -122 105 -174 16 -10 1 -12 -78
-12 l-98 -1 0 145 c0 80 3 145 8 145 4 0 20 -11 36 -24z m-531 -155 c28 -16
71 -35 95 -42 l42 -12 0 -78 0 -77 -47 -16 c-27 -9 -71 -29 -100 -45 l-51 -28
-19 41 c-24 54 -25 195 -1 249 10 20 20 37 23 37 3 0 29 -13 58 -29z m797
-101 c0 -5 -8 -10 -17 -10 -15 0 -16 2 -3 10 19 12 20 12 20 0z m-330 -68 l0
-49 -67 15 c-46 9 -97 12 -155 8 l-88 -6 0 40 0 40 155 0 155 0 0 -48z m330
-42 l0 -90 -44 6 c-25 4 -59 2 -76 -5 -29 -10 -38 -7 -98 29 -36 22 -72 40
-79 40 -9 0 -13 16 -13 55 l0 55 155 0 155 0 0 -90z m330 -65 l0 -155 -113 0
-114 0 -18 41 c-11 23 -29 48 -42 56 -21 14 -23 22 -23 114 l0 99 155 0 155 0
0 -155z m330 0 l0 -155 -155 0 -155 0 0 155 0 155 155 0 155 0 0 -155z m330 0
l0 -155 -155 0 -155 0 0 155 0 155 155 0 155 0 0 -155z m330 0 l0 -155 -155 0
-155 0 0 155 0 155 155 0 155 0 0 -155z m340 0 l0 -155 -160 0 -160 0 0 155 0
155 160 0 160 0 0 -155z m320 0 l0 -155 -155 0 -155 0 0 155 0 155 155 0 155
0 0 -155z m340 0 l0 -155 -160 0 -160 0 0 155 0 155 160 0 160 0 0 -155z m320
0 l0 -155 -155 0 -155 0 0 155 0 155 155 0 155 0 0 -155z m340 0 l0 -155 -160
0 -160 0 0 155 0 155 160 0 160 0 0 -155z m320 0 l0 -155 -155 0 -155 0 0 155
0 155 155 0 155 0 0 -155z m340 0 l0 -155 -160 0 -160 0 0 155 0 155 160 0
160 0 0 -155z m320 0 l0 -155 -155 0 -155 0 0 155 0 155 155 0 155 0 0 -155z
m340 0 l0 -155 -160 0 -160 0 0 155 0 155 160 0 160 0 0 -155z m330 0 l0 -155
-160 0 -160 0 0 155 0 155 160 0 160 0 0 -155z m330 0 l0 -155 -155 0 -155 0
0 155 0 155 155 0 155 0 0 -155z m330 0 l0 -155 -160 0 -160 0 0 155 0 155
160 0 160 0 0 -155z m330 0 l0 -155 -155 0 -155 0 0 155 0 155 155 0 155 0 0
-155z m330 0 l0 -155 -160 0 -160 0 0 155 0 155 160 0 160 0 0 -155z m330 0
l0 -155 -155 0 -155 0 0 155 0 155 155 0 155 0 0 -155z m330 0 l0 -155 -160 0
-160 0 0 155 0 155 160 0 160 0 0 -155z m330 0 l0 -155 -155 0 -155 0 0 155 0
155 155 0 155 0 0 -155z m330 0 l0 -155 -160 0 -160 0 0 155 0 155 160 0 160
0 0 -155z m330 0 l0 -155 -155 0 -155 0 0 155 0 155 155 0 155 0 0 -155z m330
0 l0 -155 -155 0 -155 0 0 155 0 155 155 0 155 0 0 -155z m330 0 l0 -155 -155
0 -155 0 0 155 0 155 155 0 155 0 0 -155z m330 0 l0 -155 -155 0 -155 0 0 155
0 155 155 0 155 0 0 -155z m330 0 l0 -155 -155 0 -155 0 0 155 0 155 155 0
155 0 0 -155z m330 0 l0 -155 -155 0 -155 0 0 155 0 155 155 0 155 0 0 -155z
m330 0 l0 -155 -155 0 -155 0 0 155 0 155 155 0 155 0 0 -155z m340 0 l0 -155
-160 0 -160 0 0 155 0 155 160 0 160 0 0 -155z m320 0 l0 -155 -155 0 -155 0
0 155 0 155 155 0 155 0 0 -155z m340 0 l0 -155 -160 0 -160 0 0 155 0 155
160 0 160 0 0 -155z m320 0 l0 -155 -155 0 -155 0 0 155 0 155 155 0 155 0 0
-155z m340 0 l0 -155 -160 0 -160 0 0 155 0 155 160 0 160 0 0 -155z m320 0
l0 -155 -155 0 -155 0 0 155 0 155 155 0 155 0 0 -155z m170 0 l0 -155 -75 0
-75 0 0 155 0 155 75 0 75 0 0 -155z m-12092 -45 c30 -11 32 -15 32 -61 l0
-49 -155 0 -156 0 3 57 c3 55 4 58 33 65 43 10 204 2 243 -12z m-298 -75 c0
-36 -2 -65 -5 -65 -13 0 -82 40 -93 53 -9 11 -8 17 6 29 19 17 73 47 85 48 4
0 7 -29 7 -65z m396 20 c41 -31 36 -55 -12 -55 -33 0 -34 1 -34 40 0 22 3 40
7 40 3 0 21 -11 39 -25z m-66 -225 l0 -150 -27 12 c-16 7 -82 12 -155 12
l-128 1 0 138 0 137 155 0 155 0 0 -150z m90 126 c0 -56 38 -114 94 -143 36
-19 68 -23 112 -13 l34 8 0 -72 0 -71 -152 5 -153 5 -3 153 -3 152 36 0 c30 0
35 -3 35 -24z m570 -133 l0 -158 -155 0 -155 0 0 76 c0 69 2 78 26 100 31 28
54 77 54 114 l0 25 115 0 115 0 0 -157z m330 0 l0 -158 -155 0 -155 0 0 158 0
157 155 0 155 0 0 -157z m330 0 l0 -158 -155 0 -155 0 0 158 0 157 155 0 155
0 0 -157z m330 0 l0 -158 -155 0 -155 0 0 158 0 157 155 0 155 0 0 -157z m338
2 l-3 -156 -158 -2 -157 -2 0 158 0 157 160 0 161 0 -3 -155z m322 -2 l0 -158
-152 2 -153 2 -3 155 -3 156 156 0 155 0 0 -157z m338 2 l-3 -156 -158 -2
-157 -2 0 158 0 157 160 0 161 0 -3 -155z m322 -2 l0 -158 -152 2 -153 2 -3
155 -3 156 156 0 155 0 0 -157z m338 2 l-3 -156 -158 -2 -157 -2 0 158 0 157
160 0 161 0 -3 -155z m322 -2 l0 -158 -152 2 -153 2 -3 155 -3 156 156 0 155
0 0 -157z m338 2 l-3 -156 -158 -2 -157 -2 0 158 0 157 160 0 161 0 -3 -155z
m322 -2 l0 -158 -152 2 -153 2 -3 155 -3 156 156 0 155 0 0 -157z m338 2 l-3
-156 -158 -2 -157 -2 0 158 0 157 160 0 161 0 -3 -155z m332 -2 l0 -158 -157
2 -158 2 -3 156 -3 155 161 0 160 0 0 -157z m328 1 l-3 -155 -153 -2 -152 -2
0 158 0 157 155 0 156 0 -3 -156z m332 -1 l0 -158 -157 2 -158 2 -3 156 -3
155 161 0 160 0 0 -157z m328 1 l-3 -155 -153 -2 -152 -2 0 158 0 157 155 0
156 0 -3 -156z m332 -1 l0 -158 -157 2 -158 2 -3 156 -3 155 161 0 160 0 0
-157z m328 1 l-3 -155 -153 -2 -152 -2 0 158 0 157 155 0 156 0 -3 -156z m332
-1 l0 -158 -157 2 -158 2 -3 156 -3 155 161 0 160 0 0 -157z m328 1 l-3 -155
-153 -2 -152 -2 0 158 0 157 155 0 156 0 -3 -156z m332 -1 l0 -158 -157 2
-158 2 -3 156 -3 155 161 0 160 0 0 -157z m330 0 l0 -158 -155 0 -155 0 0 158
0 157 155 0 155 0 0 -157z m330 0 l0 -158 -155 0 -155 0 0 158 0 157 155 0
155 0 0 -157z m330 0 l0 -158 -155 0 -155 0 0 158 0 157 155 0 155 0 0 -157z
m330 0 l0 -158 -155 0 -155 0 0 158 0 157 155 0 155 0 0 -157z m330 0 l0 -158
-155 0 -155 0 0 158 0 157 155 0 155 0 0 -157z m330 0 l0 -158 -155 0 -155 0
0 158 0 157 155 0 155 0 0 -157z m330 0 l0 -158 -155 0 -155 0 0 158 0 157
155 0 155 0 0 -157z m338 2 l-3 -156 -158 -2 -157 -2 0 158 0 157 160 0 161 0
-3 -155z m322 -2 l0 -158 -152 2 -153 2 -3 155 -3 156 156 0 155 0 0 -157z
m338 2 l-3 -156 -158 -2 -157 -2 0 158 0 157 160 0 161 0 -3 -155z m322 -2 l0
-158 -152 2 -153 2 -3 155 -3 156 156 0 155 0 0 -157z m338 2 l-3 -156 -158
-2 -157 -2 0 158 0 157 160 0 161 0 -3 -155z m322 -2 l0 -158 -152 2 -153 2
-3 155 -3 156 156 0 155 0 0 -157z m170 0 l0 -158 -75 0 -75 0 0 158 0 157 75
0 75 0 0 -157z m-12442 41 l52 -19 0 -76 0 -76 -42 -12 c-24 -7 -67 -26 -96
-42 -29 -16 -57 -27 -62 -24 -5 3 -16 28 -25 56 -21 62 -16 162 10 226 l17 42
46 -29 c26 -15 71 -36 100 -46z m712 -237 c0 -22 -3 -23 -54 -19 -29 2 -63 -1
-74 -7 -18 -9 -29 -6 -68 19 l-48 30 122 0 c121 0 122 0 122 -23z m330 -137
l0 -160 -130 0 c-71 0 -130 2 -130 4 0 2 7 17 15 32 31 60 6 174 -45 206 -13
9 -20 24 -20 45 l0 33 155 0 155 0 0 -160z m330 0 l0 -160 -155 0 -155 0 0
160 0 160 155 0 155 0 0 -160z m330 0 l0 -160 -155 0 -155 0 0 160 0 160 155
0 155 0 0 -160z m330 0 l0 -160 -155 0 -155 0 0 160 0 160 155 0 155 0 0 -160z
m340 0 l0 -160 -160 0 -160 0 0 160 0 160 160 0 160 0 0 -160z m320 0 l0 -160
-155 0 -155 0 0 160 0 160 155 0 155 0 0 -160z m340 0 l0 -160 -160 0 -160 0
0 160 0 160 160 0 160 0 0 -160z m320 0 l0 -160 -155 0 -155 0 0 160 0 160
155 0 155 0 0 -160z m340 0 l0 -160 -160 0 -160 0 0 160 0 160 160 0 160 0 0
-160z m320 0 l0 -160 -155 0 -155 0 0 160 0 160 155 0 155 0 0 -160z m340 0
l0 -160 -160 0 -160 0 0 160 0 160 160 0 160 0 0 -160z m320 0 l0 -160 -155 0
-155 0 0 160 0 160 155 0 155 0 0 -160z m340 0 l0 -160 -160 0 -160 0 0 160 0
160 160 0 160 0 0 -160z m330 0 l0 -160 -160 0 -160 0 0 160 0 160 160 0 160
0 0 -160z m330 0 l0 -160 -155 0 -155 0 0 160 0 160 155 0 155 0 0 -160z m330
0 l0 -160 -160 0 -160 0 0 160 0 160 160 0 160 0 0 -160z m330 0 l0 -160 -155
0 -155 0 0 160 0 160 155 0 155 0 0 -160z m330 0 l0 -160 -160 0 -160 0 0 160
0 160 160 0 160 0 0 -160z m330 0 l0 -160 -155 0 -155 0 0 160 0 160 155 0
155 0 0 -160z m330 0 l0 -160 -160 0 -160 0 0 160 0 160 160 0 160 0 0 -160z
m330 0 l0 -160 -155 0 -155 0 0 160 0 160 155 0 155 0 0 -160z m330 0 l0 -160
-160 0 -160 0 0 160 0 160 160 0 160 0 0 -160z m330 0 l0 -160 -155 0 -155 0
0 160 0 160 155 0 155 0 0 -160z m330 0 l0 -160 -155 0 -155 0 0 160 0 160
155 0 155 0 0 -160z m330 0 l0 -160 -155 0 -155 0 0 160 0 160 155 0 155 0 0
-160z m330 0 l0 -160 -155 0 -155 0 0 160 0 160 155 0 155 0 0 -160z m330 0
l0 -160 -155 0 -155 0 0 160 0 160 155 0 155 0 0 -160z m330 0 l0 -160 -155 0
-155 0 0 160 0 160 155 0 155 0 0 -160z m330 0 l0 -160 -155 0 -155 0 0 160 0
160 155 0 155 0 0 -160z m340 0 l0 -160 -160 0 -160 0 0 160 0 160 160 0 160
0 0 -160z m320 0 l0 -160 -155 0 -155 0 0 160 0 160 155 0 155 0 0 -160z m340
0 l0 -160 -160 0 -160 0 0 160 0 160 160 0 160 0 0 -160z m320 0 l0 -160 -155
0 -155 0 0 160 0 160 155 0 155 0 0 -160z m340 0 l0 -160 -160 0 -160 0 0 160
0 160 160 0 160 0 0 -160z m320 0 l0 -160 -155 0 -155 0 0 160 0 160 155 0
155 0 0 -160z m170 0 l0 -160 -75 0 -75 0 0 160 0 160 75 0 75 0 0 -160z
m-12112 95 l52 -16 0 -119 0 -120 -155 0 -156 0 3 127 c3 126 3 127 28 134 46
13 176 9 228 -6z m-282 -142 c-6 -7 -80 33 -96 52 -16 19 -19 15 55 58 l40 24
3 -65 c2 -35 1 -66 -2 -69z m420 65 c4 -7 7 -35 5 -62 -1 -30 5 -63 14 -80 8
-15 15 -30 15 -32 0 -2 -22 -4 -50 -4 l-50 0 0 116 0 115 30 -21 c16 -11 33
-26 36 -32z m-453 -178 l37 -12 0 -77 0 -78 -42 -12 c-24 -7 -67 -26 -97 -42
-29 -16 -57 -26 -61 -24 -17 10 -40 101 -40 156 0 34 9 81 21 113 l20 55 62
-33 c34 -19 79 -39 100 -46z m367 -91 l0 -81 -42 9 c-24 4 -94 8 -156 8 l-112
0 0 66 c0 36 3 69 7 72 3 4 73 7 155 7 l148 0 0 -81z m146 70 c19 -31 110 -49
167 -33 15 5 17 -4 17 -99 l0 -104 -52 5 c-29 2 -64 -1 -78 -6 -20 -7 -34 -3
-75 22 -27 18 -62 37 -77 44 -27 11 -28 13 -28 97 l0 85 59 0 c33 0 63 -5 67
-11z m514 -144 l0 -155 -127 0 c-124 0 -128 1 -155 27 -27 26 -28 29 -28 137
0 150 -5 146 172 146 l138 0 0 -155z m330 -2 l0 -158 -155 3 -155 3 0 154 0
155 155 0 155 0 0 -157z m330 2 l0 -155 -155 0 -155 0 0 155 0 155 155 0 155
0 0 -155z m330 -2 l0 -158 -155 3 -155 3 0 154 0 155 155 0 155 0 0 -157z
m338 0 l3 -153 -161 0 -160 0 0 155 0 156 158 -3 157 -3 3 -152z m322 0 l0
-158 -155 3 -155 3 0 148 c0 81 3 151 7 154 3 4 73 7 155 7 l148 0 0 -157z
m338 0 l3 -153 -161 0 -160 0 0 155 0 156 158 -3 157 -3 3 -152z m322 0 l0
-158 -155 3 -155 3 0 148 c0 81 3 151 7 154 3 4 73 7 155 7 l148 0 0 -157z
m338 0 l3 -153 -161 0 -160 0 0 155 0 156 158 -3 157 -3 3 -152z m322 0 l0
-158 -155 3 -155 3 0 148 c0 81 3 151 7 154 3 4 73 7 155 7 l148 0 0 -157z
m338 0 l3 -153 -161 0 -160 0 0 155 0 156 158 -3 157 -3 3 -152z m322 0 l0
-158 -155 3 -155 3 0 148 c0 81 3 151 7 154 3 4 73 7 155 7 l148 0 0 -157z
m338 0 l3 -153 -161 0 -160 0 0 155 0 156 158 -3 157 -3 3 -152z m332 2 l0
-155 -160 0 -160 0 0 148 c0 82 3 152 7 155 3 4 75 7 160 7 l153 0 0 -155z
m328 -2 l3 -153 -156 0 -155 0 0 155 0 156 153 -3 152 -3 3 -152z m332 2 l0
-155 -160 0 -160 0 0 148 c0 82 3 152 7 155 3 4 75 7 160 7 l153 0 0 -155z
m328 -2 l3 -153 -156 0 -155 0 0 155 0 156 153 -3 152 -3 3 -152z m332 2 l0
-155 -160 0 -160 0 0 148 c0 82 3 152 7 155 3 4 75 7 160 7 l153 0 0 -155z
m328 -2 l3 -153 -156 0 -155 0 0 155 0 156 153 -3 152 -3 3 -152z m332 2 l0
-155 -160 0 -160 0 0 148 c0 82 3 152 7 155 3 4 75 7 160 7 l153 0 0 -155z
m328 -2 l3 -153 -156 0 -155 0 0 155 0 156 153 -3 152 -3 3 -152z m332 2 l0
-155 -160 0 -160 0 0 148 c0 82 3 152 7 155 3 4 75 7 160 7 l153 0 0 -155z
m330 -2 l0 -158 -155 3 -155 3 0 154 0 155 155 0 155 0 0 -157z m330 2 l0
-155 -155 0 -155 0 0 155 0 155 155 0 155 0 0 -155z m330 -2 l0 -158 -155 3
-155 3 0 154 0 155 155 0 155 0 0 -157z m330 2 l0 -155 -155 0 -155 0 0 155 0
155 155 0 155 0 0 -155z m330 -2 l0 -158 -155 3 -155 3 0 154 0 155 155 0 155
0 0 -157z m330 2 l0 -155 -155 0 -155 0 0 155 0 155 155 0 155 0 0 -155z m330
-2 l0 -158 -155 3 -155 3 0 154 0 155 155 0 155 0 0 -157z m338 0 l3 -153
-161 0 -160 0 0 155 0 156 158 -3 157 -3 3 -152z m322 0 l0 -158 -155 3 -155
3 0 148 c0 81 3 151 7 154 3 4 73 7 155 7 l148 0 0 -157z m338 0 l3 -153 -161
0 -160 0 0 155 0 156 158 -3 157 -3 3 -152z m322 0 l0 -158 -155 3 -155 3 0
148 c0 81 3 151 7 154 3 4 73 7 155 7 l148 0 0 -157z m338 0 l3 -153 -161 0
-160 0 0 155 0 156 158 -3 157 -3 3 -152z m322 0 l0 -158 -155 3 -155 3 0 148
c0 81 3 151 7 154 3 4 73 7 155 7 l148 0 0 -157z m170 2 l0 -155 -75 0 -75 0
0 155 0 155 75 0 75 0 0 -155z m-12105 -109 c24 -7 41 -19 43 -29 3 -15 -11
-17 -152 -17 l-156 0 0 24 c0 22 6 26 48 31 26 3 54 8 62 9 24 5 111 -6 155
-18z m-289 -144 c-8 -7 -98 50 -103 65 -3 6 20 26 49 42 l53 31 3 -66 c2 -37
1 -69 -2 -72z m374 103 c11 -13 10 -14 -4 -9 -9 3 -16 10 -16 15 0 13 6 11 20
-6z m-40 -185 l0 -160 -155 0 -155 0 0 160 0 160 155 0 155 0 0 -160z m85 152
c6 -4 10 -36 10 -72 0 -52 5 -72 23 -98 36 -49 94 -75 159 -70 l53 5 0 -39 0
-38 -155 0 -155 0 0 160 0 160 28 0 c15 0 32 -4 37 -8z m575 -152 l0 -160
-155 0 -155 0 0 41 c0 32 7 49 35 82 39 45 50 87 41 153 l-6 44 120 0 120 0 0
-160z m330 0 l0 -160 -155 0 -155 0 0 160 0 160 155 0 155 0 0 -160z m330 0
l0 -160 -155 0 -155 0 0 160 0 160 155 0 155 0 0 -160z m330 0 l0 -160 -155 0
-155 0 0 160 0 160 155 0 155 0 0 -160z m340 0 l0 -160 -160 0 -160 0 0 160 0
160 160 0 160 0 0 -160z m320 0 l0 -160 -155 0 -155 0 0 160 0 160 155 0 155
0 0 -160z m340 0 l0 -160 -160 0 -160 0 0 160 0 160 160 0 160 0 0 -160z m320
0 l0 -160 -155 0 -155 0 0 160 0 160 155 0 155 0 0 -160z m340 0 l0 -160 -160
0 -160 0 0 160 0 160 160 0 160 0 0 -160z m320 0 l0 -160 -155 0 -155 0 0 160
0 160 155 0 155 0 0 -160z m340 0 l0 -160 -160 0 -160 0 0 160 0 160 160 0
160 0 0 -160z m320 0 l0 -160 -155 0 -155 0 0 160 0 160 155 0 155 0 0 -160z
m340 0 l0 -160 -160 0 -160 0 0 160 0 160 160 0 160 0 0 -160z m330 0 l0 -160
-160 0 -160 0 0 160 0 160 160 0 160 0 0 -160z m330 0 l0 -160 -155 0 -155 0
0 160 0 160 155 0 155 0 0 -160z m330 0 l0 -160 -160 0 -160 0 0 160 0 160
160 0 160 0 0 -160z m330 0 l0 -160 -155 0 -155 0 0 160 0 160 155 0 155 0 0
-160z m330 0 l0 -160 -160 0 -160 0 0 160 0 160 160 0 160 0 0 -160z m330 0
l0 -160 -155 0 -155 0 0 160 0 160 155 0 155 0 0 -160z m330 0 l0 -160 -160 0
-160 0 0 160 0 160 160 0 160 0 0 -160z m330 0 l0 -160 -155 0 -155 0 0 160 0
160 155 0 155 0 0 -160z m330 0 l0 -160 -160 0 -160 0 0 160 0 160 160 0 160
0 0 -160z m330 0 l0 -160 -155 0 -155 0 0 160 0 160 155 0 155 0 0 -160z m330
0 l0 -160 -155 0 -155 0 0 160 0 160 155 0 155 0 0 -160z m330 0 l0 -160 -155
0 -155 0 0 160 0 160 155 0 155 0 0 -160z m330 0 l0 -160 -155 0 -155 0 0 160
0 160 155 0 155 0 0 -160z m330 0 l0 -160 -155 0 -155 0 0 160 0 160 155 0
155 0 0 -160z m330 0 l0 -160 -155 0 -155 0 0 160 0 160 155 0 155 0 0 -160z
m330 0 l0 -160 -155 0 -155 0 0 160 0 160 155 0 155 0 0 -160z m340 0 l0 -160
-160 0 -160 0 0 160 0 160 160 0 160 0 0 -160z m320 0 l0 -160 -155 0 -155 0
0 160 0 160 155 0 155 0 0 -160z m340 0 l0 -160 -160 0 -160 0 0 160 0 160
160 0 160 0 0 -160z m320 0 l0 -160 -155 0 -155 0 0 160 0 160 155 0 155 0 0
-160z m340 0 l0 -160 -160 0 -160 0 0 160 0 160 160 0 160 0 0 -160z m320 0
l0 -160 -155 0 -155 0 0 160 0 160 155 0 155 0 0 -160z m170 0 l0 -160 -75 0
-75 0 0 160 0 160 75 0 75 0 0 -160z m-12427 -30 l37 -12 0 -79 c0 -71 -2 -79
-19 -79 -10 0 -54 -18 -97 -39 -43 -22 -81 -38 -85 -35 -4 2 -14 25 -23 51
-22 65 -20 151 5 218 l20 55 62 -34 c34 -18 79 -39 100 -46z m146 -144 c-11
-10 -89 -15 -89 -6 0 5 21 10 47 10 25 0 44 -2 42 -4z m221 -11 c0 -18 1 -18
-75 -1 l-60 14 68 1 c53 1 67 -2 67 -14z m330 -44 l0 -59 -35 8 c-30 7 -69 3
-110 -11 -5 -2 -30 9 -54 25 -25 16 -60 35 -78 42 -22 10 -33 21 -33 34 0 19
7 20 155 20 l155 0 0 -59z m330 -96 l0 -155 -115 0 -115 0 0 35 c0 46 -21 94
-54 124 -23 22 -26 32 -26 88 l0 63 155 0 155 0 0 -155z m330 0 l0 -155 -155
0 -155 0 0 155 0 155 155 0 155 0 0 -155z m330 0 l0 -155 -155 0 -155 0 0 155
0 155 155 0 155 0 0 -155z m330 0 l0 -155 -155 0 -155 0 0 155 0 155 155 0
155 0 0 -155z m338 -2 l3 -153 -161 0 -160 0 0 155 0 156 158 -3 157 -3 3
-152z m322 2 l0 -155 -155 0 -155 0 0 148 c0 82 3 152 7 155 3 4 73 7 155 7
l148 0 0 -155z m338 -2 l3 -153 -161 0 -160 0 0 155 0 156 158 -3 157 -3 3
-152z m322 2 l0 -155 -155 0 -155 0 0 148 c0 82 3 152 7 155 3 4 73 7 155 7
l148 0 0 -155z m338 -2 l3 -153 -161 0 -160 0 0 155 0 156 158 -3 157 -3 3
-152z m322 2 l0 -155 -155 0 -155 0 0 148 c0 82 3 152 7 155 3 4 73 7 155 7
l148 0 0 -155z m338 -2 l3 -153 -161 0 -160 0 0 155 0 156 158 -3 157 -3 3
-152z m322 2 l0 -155 -155 0 -155 0 0 148 c0 82 3 152 7 155 3 4 73 7 155 7
l148 0 0 -155z m338 -2 l3 -153 -161 0 -160 0 0 155 0 156 158 -3 157 -3 3
-152z m332 2 l0 -155 -160 0 -160 0 0 148 c0 82 3 152 7 155 3 4 75 7 160 7
l153 0 0 -155z m328 -2 l3 -153 -156 0 -155 0 0 155 0 156 153 -3 152 -3 3
-152z m332 2 l0 -155 -160 0 -160 0 0 148 c0 82 3 152 7 155 3 4 75 7 160 7
l153 0 0 -155z m328 -2 l3 -153 -156 0 -155 0 0 155 0 156 153 -3 152 -3 3
-152z m332 2 l0 -155 -160 0 -160 0 0 148 c0 82 3 152 7 155 3 4 75 7 160 7
l153 0 0 -155z m328 -2 l3 -153 -156 0 -155 0 0 155 0 156 153 -3 152 -3 3
-152z m332 2 l0 -155 -160 0 -160 0 0 148 c0 82 3 152 7 155 3 4 75 7 160 7
l153 0 0 -155z m328 -2 l3 -153 -156 0 -155 0 0 155 0 156 153 -3 152 -3 3
-152z m332 2 l0 -155 -160 0 -160 0 0 148 c0 82 3 152 7 155 3 4 75 7 160 7
l153 0 0 -155z m330 0 l0 -155 -155 0 -155 0 0 155 0 155 155 0 155 0 0 -155z
m330 0 l0 -155 -155 0 -155 0 0 155 0 155 155 0 155 0 0 -155z m330 0 l0 -155
-155 0 -155 0 0 155 0 155 155 0 155 0 0 -155z m330 0 l0 -155 -155 0 -155 0
0 155 0 155 155 0 155 0 0 -155z m330 0 l0 -155 -155 0 -155 0 0 155 0 155
155 0 155 0 0 -155z m330 0 l0 -155 -155 0 -155 0 0 155 0 155 155 0 155 0 0
-155z m330 0 l0 -155 -155 0 -155 0 0 155 0 155 155 0 155 0 0 -155z m338 -2
l3 -153 -161 0 -160 0 0 155 0 156 158 -3 157 -3 3 -152z m322 2 l0 -155 -155
0 -155 0 0 148 c0 82 3 152 7 155 3 4 73 7 155 7 l148 0 0 -155z m338 -2 l3
-153 -161 0 -160 0 0 155 0 156 158 -3 157 -3 3 -152z m322 2 l0 -155 -155 0
-155 0 0 148 c0 82 3 152 7 155 3 4 73 7 155 7 l148 0 0 -155z m338 -2 l3
-153 -161 0 -160 0 0 155 0 156 158 -3 157 -3 3 -152z m322 2 l0 -155 -155 0
-155 0 0 148 c0 82 3 152 7 155 3 4 73 7 155 7 l148 0 0 -155z m170 0 l0 -155
-75 0 -75 0 0 155 0 155 75 0 75 0 0 -155z m-12101 21 l36 -13 3 -81 3 -82
-156 0 -155 0 0 90 0 89 38 6 c20 4 44 8 52 10 26 6 141 -6 179 -19z m-289
-76 c0 -62 -2 -69 -17 -63 -39 14 -94 55 -90 66 2 9 91 66 105 67 1 0 2 -31 2
-70z m419 5 c4 -5 6 -31 3 -57 -4 -47 -5 -48 -38 -48 l-34 0 0 76 0 75 31 -18
c17 -10 34 -22 38 -28z m-579 -125 c16 -11 57 -31 92 -44 l63 -24 0 -77 0 -78
-52 -18 c-28 -9 -72 -29 -97 -44 l-46 -27 -17 38 c-24 53 -24 204 0 257 10 20
20 37 23 37 3 0 19 -9 34 -20z m490 -116 c0 -107 -1 -116 -17 -109 -22 8 -179
24 -202 19 -9 -1 -33 -5 -53 -8 l-38 -5 0 110 0 109 155 0 155 0 0 -116z m115
79 c29 -54 95 -86 163 -80 l52 6 0 -104 0 -103 -34 9 c-22 6 -50 6 -79 -1 -42
-9 -49 -7 -103 25 -31 19 -66 37 -76 41 -16 5 -18 18 -18 125 l0 119 38 0 c32
0 39 -5 57 -37z m545 -123 l0 -160 -155 0 -155 0 0 114 c0 108 1 114 23 129
13 9 30 29 37 46 l12 31 119 0 119 0 0 -160z m330 0 l0 -160 -155 0 -155 0 0
160 0 160 155 0 155 0 0 -160z m330 0 l0 -160 -155 0 -155 0 0 160 0 160 155
0 155 0 0 -160z m330 0 l0 -160 -155 0 -155 0 0 160 0 160 155 0 155 0 0 -160z
m338 3 l-3 -158 -157 -3 -158 -3 0 161 0 160 160 0 161 0 -3 -157z m322 -3 l0
-160 -155 0 -155 0 0 160 0 160 155 0 155 0 0 -160z m338 3 l-3 -158 -157 -3
-158 -3 0 161 0 160 160 0 161 0 -3 -157z m322 -3 l0 -160 -155 0 -155 0 0
160 0 160 155 0 155 0 0 -160z m338 3 l-3 -158 -157 -3 -158 -3 0 161 0 160
160 0 161 0 -3 -157z m322 -3 l0 -160 -155 0 -155 0 0 160 0 160 155 0 155 0
0 -160z m338 3 l-3 -158 -157 -3 -158 -3 0 161 0 160 160 0 161 0 -3 -157z
m322 -3 l0 -160 -155 0 -155 0 0 160 0 160 155 0 155 0 0 -160z m338 3 l-3
-158 -157 -3 -158 -3 0 161 0 160 160 0 161 0 -3 -157z m332 -3 l0 -160 -160
0 -160 0 0 160 0 160 160 0 160 0 0 -160z m328 3 l-3 -158 -152 -3 -153 -3 0
161 0 160 155 0 156 0 -3 -157z m332 -3 l0 -160 -160 0 -160 0 0 160 0 160
160 0 160 0 0 -160z m328 3 l-3 -158 -152 -3 -153 -3 0 161 0 160 155 0 156 0
-3 -157z m332 -3 l0 -160 -160 0 -160 0 0 160 0 160 160 0 160 0 0 -160z m328
3 l-3 -158 -152 -3 -153 -3 0 161 0 160 155 0 156 0 -3 -157z m332 -3 l0 -160
-160 0 -160 0 0 160 0 160 160 0 160 0 0 -160z m328 3 l-3 -158 -152 -3 -153
-3 0 161 0 160 155 0 156 0 -3 -157z m332 -3 l0 -160 -160 0 -160 0 0 160 0
160 160 0 160 0 0 -160z m330 0 l0 -160 -155 0 -155 0 0 160 0 160 155 0 155
0 0 -160z m330 0 l0 -160 -155 0 -155 0 0 160 0 160 155 0 155 0 0 -160z m330
0 l0 -160 -155 0 -155 0 0 160 0 160 155 0 155 0 0 -160z m330 0 l0 -160 -155
0 -155 0 0 160 0 160 155 0 155 0 0 -160z m330 0 l0 -160 -155 0 -155 0 0 160
0 160 155 0 155 0 0 -160z m330 0 l0 -160 -155 0 -155 0 0 160 0 160 155 0
155 0 0 -160z m330 0 l0 -160 -155 0 -155 0 0 160 0 160 155 0 155 0 0 -160z
m338 3 l-3 -158 -157 -3 -158 -3 0 161 0 160 160 0 161 0 -3 -157z m322 -3 l0
-160 -155 0 -155 0 0 160 0 160 155 0 155 0 0 -160z m338 3 l-3 -158 -157 -3
-158 -3 0 161 0 160 160 0 161 0 -3 -157z m322 -3 l0 -160 -155 0 -155 0 0
160 0 160 155 0 155 0 0 -160z m338 3 l-3 -158 -157 -3 -158 -3 0 161 0 160
160 0 161 0 -3 -157z m322 -3 l0 -160 -155 0 -155 0 0 160 0 160 155 0 155 0
0 -160z m170 0 l0 -160 -75 0 -75 0 0 160 0 160 75 0 75 0 0 -160z m-12217
-157 c-13 -2 -33 -2 -45 0 -13 2 -3 4 22 4 25 0 35 -2 23 -4z m131 -23 l26
-10 0 -145 0 -145 -155 0 -155 0 0 155 0 155 129 0 c71 0 141 -4 155 -10z
m686 -145 l0 -155 -155 0 c-100 0 -155 4 -155 10 0 6 7 13 15 16 29 12 65 88
65 138 0 53 -10 78 -48 119 l-26 27 152 0 152 0 0 -155z m330 0 l0 -155 -155
0 -155 0 0 155 0 155 155 0 155 0 0 -155z m330 0 l0 -155 -155 0 -155 0 0 155
0 155 155 0 155 0 0 -155z m330 0 l0 -155 -155 0 -155 0 0 155 0 155 155 0
155 0 0 -155z m338 -2 l3 -153 -161 0 -160 0 0 155 0 156 158 -3 157 -3 3
-152z m322 2 l0 -155 -155 0 -155 0 0 155 0 155 155 0 155 0 0 -155z m338 -2
l3 -153 -161 0 -160 0 0 155 0 156 158 -3 157 -3 3 -152z m322 2 l0 -155 -155
0 -155 0 0 155 0 155 155 0 155 0 0 -155z m338 -2 l3 -153 -161 0 -160 0 0
155 0 156 158 -3 157 -3 3 -152z m322 2 l0 -155 -155 0 -155 0 0 155 0 155
155 0 155 0 0 -155z m338 -2 l3 -153 -161 0 -160 0 0 155 0 156 158 -3 157 -3
3 -152z m322 2 l0 -155 -155 0 -155 0 0 155 0 155 155 0 155 0 0 -155z m338
-2 l3 -153 -161 0 -160 0 0 155 0 156 158 -3 157 -3 3 -152z m332 2 l0 -155
-160 0 -160 0 0 155 0 155 160 0 160 0 0 -155z m328 -2 l3 -153 -156 0 -155 0
0 155 0 156 153 -3 152 -3 3 -152z m332 2 l0 -155 -160 0 -160 0 0 155 0 155
160 0 160 0 0 -155z m328 -2 l3 -153 -156 0 -155 0 0 155 0 156 153 -3 152 -3
3 -152z m332 2 l0 -155 -160 0 -160 0 0 155 0 155 160 0 160 0 0 -155z m328
-2 l3 -153 -156 0 -155 0 0 155 0 156 153 -3 152 -3 3 -152z m332 2 l0 -155
-160 0 -160 0 0 155 0 155 160 0 160 0 0 -155z m328 -2 l3 -153 -156 0 -155 0
0 155 0 156 153 -3 152 -3 3 -152z m332 2 l0 -155 -160 0 -160 0 0 155 0 155
160 0 160 0 0 -155z m330 0 l0 -155 -155 0 -155 0 0 155 0 155 155 0 155 0 0
-155z m330 0 l0 -155 -155 0 -155 0 0 155 0 155 155 0 155 0 0 -155z m330 0
l0 -155 -155 0 -155 0 0 155 0 155 155 0 155 0 0 -155z m330 0 l0 -155 -155 0
-155 0 0 155 0 155 155 0 155 0 0 -155z m330 0 l0 -155 -155 0 -155 0 0 155 0
155 155 0 155 0 0 -155z m330 0 l0 -155 -155 0 -155 0 0 155 0 155 155 0 155
0 0 -155z m330 0 l0 -155 -155 0 -155 0 0 155 0 155 155 0 155 0 0 -155z m338
-2 l3 -153 -161 0 -160 0 0 155 0 156 158 -3 157 -3 3 -152z m322 2 l0 -155
-155 0 -155 0 0 155 0 155 155 0 155 0 0 -155z m338 -2 l3 -153 -161 0 -160 0
0 155 0 156 158 -3 157 -3 3 -152z m322 2 l0 -155 -155 0 -155 0 0 155 0 155
155 0 155 0 0 -155z m338 -2 l3 -153 -161 0 -160 0 0 155 0 156 158 -3 157 -3
3 -152z m322 2 l0 -155 -155 0 -155 0 0 155 0 155 155 0 155 0 0 -155z m170 0
l0 -155 -75 0 -75 0 0 155 0 155 75 0 75 0 0 -155z m-12390 75 l0 -70 -37 19
c-21 11 -47 26 -58 35 -18 13 -18 16 -5 29 13 13 89 57 97 57 2 0 3 -32 3 -70z
m401 19 c24 -16 25 -23 21 -73 -5 -64 23 -124 73 -156 l30 -20 -87 0 -88 0 0
141 c0 109 3 139 13 133 6 -4 24 -15 38 -25z m-514 -161 c40 -19 81 -38 93
-41 18 -5 20 -13 20 -80 l0 -75 -37 -12 c-21 -7 -66 -27 -100 -46 l-63 -34
-17 38 c-24 52 -24 203 0 255 9 21 20 37 24 35 5 -2 40 -20 80 -40z m443 -159
c0 -43 -3 -50 -16 -45 -48 18 -155 28 -222 19 l-72 -9 0 43 0 43 155 0 155 0
0 -51z m330 -43 l0 -95 -31 11 c-23 8 -45 8 -80 0 -46 -11 -51 -10 -91 17 -24
15 -58 33 -75 41 -32 12 -33 15 -33 66 l0 54 155 0 155 0 0 -94z m330 -66 l0
-160 -114 0 c-113 0 -114 0 -120 25 -4 14 -22 43 -41 64 -35 38 -35 39 -35
135 l0 96 155 0 155 0 0 -160z m330 0 l0 -160 -155 0 -155 0 0 160 0 160 155
0 155 0 0 -160z m330 0 l0 -160 -155 0 -155 0 0 160 0 160 155 0 155 0 0 -160z
m330 0 l0 -160 -155 0 -155 0 0 160 0 160 155 0 155 0 0 -160z m338 3 l-3
-158 -157 -3 -158 -3 0 161 0 160 160 0 161 0 -3 -157z m322 -3 l0 -160 -155
0 -155 0 0 160 0 160 155 0 155 0 0 -160z m338 3 l-3 -158 -157 -3 -158 -3 0
161 0 160 160 0 161 0 -3 -157z m322 -3 l0 -160 -155 0 -155 0 0 160 0 160
155 0 155 0 0 -160z m338 3 l-3 -158 -157 -3 -158 -3 0 161 0 160 160 0 161 0
-3 -157z m322 -3 l0 -160 -155 0 -155 0 0 160 0 160 155 0 155 0 0 -160z m338
3 l-3 -158 -157 -3 -158 -3 0 161 0 160 160 0 161 0 -3 -157z m322 -3 l0 -160
-155 0 -155 0 0 160 0 160 155 0 155 0 0 -160z m338 3 l-3 -158 -157 -3 -158
-3 0 161 0 160 160 0 161 0 -3 -157z m332 -3 l0 -160 -160 0 -160 0 0 160 0
160 160 0 160 0 0 -160z m328 3 l-3 -158 -152 -3 -153 -3 0 161 0 160 155 0
156 0 -3 -157z m332 -3 l0 -160 -160 0 -160 0 0 160 0 160 160 0 160 0 0 -160z
m328 3 l-3 -158 -152 -3 -153 -3 0 161 0 160 155 0 156 0 -3 -157z m332 -3 l0
-160 -160 0 -160 0 0 160 0 160 160 0 160 0 0 -160z m328 3 l-3 -158 -152 -3
-153 -3 0 161 0 160 155 0 156 0 -3 -157z m332 -3 l0 -160 -160 0 -160 0 0
160 0 160 160 0 160 0 0 -160z m328 3 l-3 -158 -152 -3 -153 -3 0 161 0 160
155 0 156 0 -3 -157z m332 -3 l0 -160 -160 0 -160 0 0 160 0 160 160 0 160 0
0 -160z m330 0 l0 -160 -155 0 -155 0 0 160 0 160 155 0 155 0 0 -160z m330 0
l0 -160 -155 0 -155 0 0 160 0 160 155 0 155 0 0 -160z m330 0 l0 -160 -155 0
-155 0 0 160 0 160 155 0 155 0 0 -160z m330 0 l0 -160 -155 0 -155 0 0 160 0
160 155 0 155 0 0 -160z m330 0 l0 -160 -155 0 -155 0 0 160 0 160 155 0 155
0 0 -160z m330 0 l0 -160 -155 0 -155 0 0 160 0 160 155 0 155 0 0 -160z m330
0 l0 -160 -155 0 -155 0 0 160 0 160 155 0 155 0 0 -160z m338 3 l-3 -158
-157 -3 -158 -3 0 161 0 160 160 0 161 0 -3 -157z m322 -3 l0 -160 -155 0
-155 0 0 160 0 160 155 0 155 0 0 -160z m338 3 l-3 -158 -157 -3 -158 -3 0
161 0 160 160 0 161 0 -3 -157z m322 -3 l0 -160 -155 0 -155 0 0 160 0 160
155 0 155 0 0 -160z m338 3 l-3 -158 -157 -3 -158 -3 0 161 0 160 160 0 161 0
-3 -157z m322 -3 l0 -160 -155 0 -155 0 0 160 0 160 155 0 155 0 0 -160z m170
0 l0 -160 -75 0 -75 0 0 160 0 160 75 0 75 0 0 -160z m-12097 -41 c37 -12 37
-13 37 -66 l0 -53 -155 0 -155 0 0 60 c0 57 1 60 28 66 15 3 32 8 37 10 19 7
170 -5 208 -17z m-293 -80 l0 -71 -32 19 c-64 38 -78 48 -78 56 0 8 89 67 102
67 4 0 8 -32 8 -71z m396 26 c43 -33 37 -65 -12 -65 -34 0 -34 1 -34 45 0 25
3 45 7 45 3 0 21 -11 39 -25z m-66 -223 l0 -149 -67 15 c-47 9 -96 12 -155 8
l-88 -7 0 141 0 140 155 0 155 0 0 -148z m90 116 c0 -93 122 -180 209 -150
l31 11 0 -75 0 -74 -139 0 c-77 0 -146 3 -155 6 -14 5 -16 29 -16 160 l0 154
35 0 c33 0 35 -2 35 -32z m570 -128 l0 -160 -155 0 -155 0 0 78 c0 72 2 81 26
103 34 32 54 71 54 109 l0 30 115 0 115 0 0 -160z m330 0 l0 -160 -155 0 -155
0 0 160 0 160 155 0 155 0 0 -160z m330 0 l0 -160 -155 0 -155 0 0 160 0 160
155 0 155 0 0 -160z m330 0 l0 -160 -155 0 -155 0 0 160 0 160 155 0 155 0 0
-160z m338 -2 l3 -158 -161 0 -160 0 0 160 0 161 158 -3 157 -3 3 -157z m322
2 l0 -160 -155 0 -155 0 0 160 0 160 155 0 155 0 0 -160z m338 -2 l3 -158
-161 0 -160 0 0 160 0 161 158 -3 157 -3 3 -157z m322 2 l0 -160 -155 0 -155
0 0 160 0 160 155 0 155 0 0 -160z m338 -2 l3 -158 -161 0 -160 0 0 160 0 161
158 -3 157 -3 3 -157z m322 2 l0 -160 -155 0 -155 0 0 160 0 160 155 0 155 0
0 -160z m338 -2 l3 -158 -161 0 -160 0 0 160 0 161 158 -3 157 -3 3 -157z
m322 2 l0 -160 -155 0 -155 0 0 160 0 160 155 0 155 0 0 -160z m338 -2 l3
-158 -161 0 -160 0 0 160 0 161 158 -3 157 -3 3 -157z m332 2 l0 -160 -160 0
-160 0 0 160 0 160 160 0 160 0 0 -160z m328 -2 l3 -158 -156 0 -155 0 0 160
0 161 153 -3 152 -3 3 -157z m332 2 l0 -160 -160 0 -160 0 0 160 0 160 160 0
160 0 0 -160z m328 -2 l3 -158 -156 0 -155 0 0 160 0 161 153 -3 152 -3 3
-157z m332 2 l0 -160 -160 0 -160 0 0 160 0 160 160 0 160 0 0 -160z m328 -2
l3 -158 -156 0 -155 0 0 160 0 161 153 -3 152 -3 3 -157z m332 2 l0 -160 -160
0 -160 0 0 160 0 160 160 0 160 0 0 -160z m328 -2 l3 -158 -156 0 -155 0 0
160 0 161 153 -3 152 -3 3 -157z m332 2 l0 -160 -160 0 -160 0 0 160 0 160
160 0 160 0 0 -160z m330 0 l0 -160 -155 0 -155 0 0 160 0 160 155 0 155 0 0
-160z m330 0 l0 -160 -155 0 -155 0 0 160 0 160 155 0 155 0 0 -160z m330 0
l0 -160 -155 0 -155 0 0 160 0 160 155 0 155 0 0 -160z m330 0 l0 -160 -155 0
-155 0 0 160 0 160 155 0 155 0 0 -160z m330 0 l0 -160 -155 0 -155 0 0 160 0
160 155 0 155 0 0 -160z m330 0 l0 -160 -155 0 -155 0 0 160 0 160 155 0 155
0 0 -160z m330 0 l0 -160 -155 0 -155 0 0 160 0 160 155 0 155 0 0 -160z m338
-2 l3 -158 -161 0 -160 0 0 160 0 161 158 -3 157 -3 3 -157z m322 2 l0 -160
-155 0 -155 0 0 160 0 160 155 0 155 0 0 -160z m338 -2 l3 -158 -161 0 -160 0
0 160 0 161 158 -3 157 -3 3 -157z m322 2 l0 -160 -155 0 -155 0 0 160 0 160
155 0 155 0 0 -160z m338 -2 l3 -158 -161 0 -160 0 0 160 0 161 158 -3 157 -3
3 -157z m322 2 l0 -160 -155 0 -155 0 0 160 0 160 155 0 155 0 0 -160z m170 0
l0 -160 -75 0 -75 0 0 160 0 160 75 0 75 0 0 -160z m-12518 76 c35 -19 78 -37
96 -41 l32 -7 0 -78 0 -78 -47 -16 c-27 -9 -71 -29 -100 -45 l-51 -28 -19 41
c-24 54 -25 195 -1 249 10 20 19 37 22 37 3 0 34 -15 68 -34z m788 -276 c0
-17 -5 -19 -44 -14 -25 4 -59 1 -76 -5 -28 -9 -38 -8 -74 14 l-41 25 118 0
c110 0 117 -1 117 -20z m330 -135 l0 -155 -129 0 -130 0 15 35 c22 52 18 112
-11 160 -13 24 -31 45 -40 49 -9 3 -15 18 -15 36 l0 30 155 0 155 0 0 -155z
m330 0 l0 -155 -155 0 -155 0 0 155 0 155 155 0 155 0 0 -155z m330 0 l0 -155
-155 0 -155 0 0 155 0 155 155 0 155 0 0 -155z m330 0 l0 -155 -155 0 -155 0
0 155 0 155 155 0 155 0 0 -155z m338 3 l-3 -153 -157 -3 -158 -3 0 156 0 155
160 0 161 0 -3 -152z m322 -3 l0 -156 -152 3 -153 3 -3 153 -3 152 156 0 155
0 0 -155z m338 3 l-3 -153 -157 -3 -158 -3 0 156 0 155 160 0 161 0 -3 -152z
m322 -3 l0 -156 -152 3 -153 3 -3 153 -3 152 156 0 155 0 0 -155z m338 3 l-3
-153 -157 -3 -158 -3 0 156 0 155 160 0 161 0 -3 -152z m322 -3 l0 -156 -152
3 -153 3 -3 153 -3 152 156 0 155 0 0 -155z m338 3 l-3 -153 -157 -3 -158 -3
0 156 0 155 160 0 161 0 -3 -152z m322 -3 l0 -156 -152 3 -153 3 -3 153 -3
152 156 0 155 0 0 -155z m338 3 l-3 -153 -157 -3 -158 -3 0 156 0 155 160 0
161 0 -3 -152z m332 -3 l0 -156 -157 3 -158 3 -3 153 -3 152 161 0 160 0 0
-155z m328 3 l-3 -153 -152 -3 -153 -3 0 156 0 155 155 0 156 0 -3 -152z m332
-3 l0 -156 -157 3 -158 3 -3 153 -3 152 161 0 160 0 0 -155z m328 3 l-3 -153
-152 -3 -153 -3 0 156 0 155 155 0 156 0 -3 -152z m332 -3 l0 -156 -157 3
-158 3 -3 153 -3 152 161 0 160 0 0 -155z m328 3 l-3 -153 -152 -3 -153 -3 0
156 0 155 155 0 156 0 -3 -152z m332 -3 l0 -156 -157 3 -158 3 -3 153 -3 152
161 0 160 0 0 -155z m328 3 l-3 -153 -152 -3 -153 -3 0 156 0 155 155 0 156 0
-3 -152z m332 -3 l0 -156 -157 3 -158 3 -3 153 -3 152 161 0 160 0 0 -155z
m330 0 l0 -155 -155 0 -155 0 0 155 0 155 155 0 155 0 0 -155z m330 0 l0 -155
-155 0 -155 0 0 155 0 155 155 0 155 0 0 -155z m330 0 l0 -155 -155 0 -155 0
0 155 0 155 155 0 155 0 0 -155z m330 0 l0 -155 -155 0 -155 0 0 155 0 155
155 0 155 0 0 -155z m330 0 l0 -155 -155 0 -155 0 0 155 0 155 155 0 155 0 0
-155z m330 0 l0 -155 -155 0 -155 0 0 155 0 155 155 0 155 0 0 -155z m330 0
l0 -155 -155 0 -155 0 0 155 0 155 155 0 155 0 0 -155z m338 3 l-3 -153 -157
-3 -158 -3 0 156 0 155 160 0 161 0 -3 -152z m322 -3 l0 -156 -152 3 -153 3
-3 153 -3 152 156 0 155 0 0 -155z m338 3 l-3 -153 -157 -3 -158 -3 0 156 0
155 160 0 161 0 -3 -152z m322 -3 l0 -156 -152 3 -153 3 -3 153 -3 152 156 0
155 0 0 -155z m338 3 l-3 -153 -157 -3 -158 -3 0 156 0 155 160 0 161 0 -3
-152z m322 -3 l0 -156 -152 3 -153 3 -3 153 -3 152 156 0 155 0 0 -155z m170
0 l0 -155 -75 0 -75 0 0 155 0 155 75 0 75 0 0 -155z m-12092 95 l32 -12 0
-119 0 -120 -152 3 -153 3 0 125 0 125 30 7 c43 10 204 2 243 -12z m-298 -75
c0 -76 -7 -80 -69 -34 -36 25 -40 33 -30 45 12 15 77 53 92 54 4 0 7 -29 7
-65z m394 21 c27 -21 30 -28 27 -73 -1 -29 4 -66 13 -87 l15 -36 -50 0 -49 0
0 110 c0 61 3 110 8 110 4 0 20 -11 36 -24z m-446 -192 l52 -19 0 -76 0 -76
-39 -12 c-22 -6 -65 -25 -96 -41 -32 -17 -61 -28 -65 -25 -5 3 -16 28 -25 56
-21 62 -16 162 10 226 l17 42 46 -29 c26 -15 71 -36 100 -46z m382 -99 l0 -85
-27 12 c-16 7 -82 12 -155 12 l-128 1 0 73 0 72 155 0 155 0 0 -85z m145 75
c16 -25 82 -49 125 -44 24 3 48 8 52 10 4 3 8 -42 8 -100 l0 -106 -44 6 c-25
4 -59 2 -76 -5 -29 -10 -38 -7 -98 29 -36 22 -72 40 -79 40 -10 0 -13 22 -13
90 l0 90 59 0 c33 0 63 -5 66 -10z m515 -150 l0 -160 -124 0 -124 0 -31 31
c-31 30 -31 31 -31 141 0 152 -5 148 172 148 l138 0 0 -160z m330 0 l0 -160
-155 0 -155 0 0 160 0 160 155 0 155 0 0 -160z m330 0 l0 -160 -155 0 -155 0
0 160 0 160 155 0 155 0 0 -160z m330 0 l0 -160 -155 0 -155 0 0 160 0 160
155 0 155 0 0 -160z m340 0 l0 -160 -160 0 -160 0 0 160 0 160 160 0 160 0 0
-160z m320 0 l0 -160 -155 0 -155 0 0 160 0 160 155 0 155 0 0 -160z m340 0
l0 -160 -160 0 -160 0 0 160 0 160 160 0 160 0 0 -160z m320 0 l0 -160 -155 0
-155 0 0 160 0 160 155 0 155 0 0 -160z m340 0 l0 -160 -160 0 -160 0 0 160 0
160 160 0 160 0 0 -160z m320 0 l0 -160 -155 0 -155 0 0 160 0 160 155 0 155
0 0 -160z m340 0 l0 -160 -160 0 -160 0 0 160 0 160 160 0 160 0 0 -160z m320
0 l0 -160 -155 0 -155 0 0 160 0 160 155 0 155 0 0 -160z m340 0 l0 -160 -160
0 -160 0 0 160 0 160 160 0 160 0 0 -160z m330 0 l0 -160 -160 0 -160 0 0 160
0 160 160 0 160 0 0 -160z m330 0 l0 -160 -155 0 -155 0 0 160 0 160 155 0
155 0 0 -160z m330 0 l0 -160 -160 0 -160 0 0 160 0 160 160 0 160 0 0 -160z
m330 0 l0 -160 -155 0 -155 0 0 160 0 160 155 0 155 0 0 -160z m330 0 l0 -160
-160 0 -160 0 0 160 0 160 160 0 160 0 0 -160z m330 0 l0 -160 -155 0 -155 0
0 160 0 160 155 0 155 0 0 -160z m330 0 l0 -160 -160 0 -160 0 0 160 0 160
160 0 160 0 0 -160z m330 0 l0 -160 -155 0 -155 0 0 160 0 160 155 0 155 0 0
-160z m330 0 l0 -160 -160 0 -160 0 0 160 0 160 160 0 160 0 0 -160z m330 0
l0 -160 -155 0 -155 0 0 160 0 160 155 0 155 0 0 -160z m330 0 l0 -160 -155 0
-155 0 0 160 0 160 155 0 155 0 0 -160z m330 0 l0 -160 -155 0 -155 0 0 160 0
160 155 0 155 0 0 -160z m330 0 l0 -160 -155 0 -155 0 0 160 0 160 155 0 155
0 0 -160z m330 0 l0 -160 -155 0 -155 0 0 160 0 160 155 0 155 0 0 -160z m330
0 l0 -160 -155 0 -155 0 0 160 0 160 155 0 155 0 0 -160z m330 0 l0 -160 -155
0 -155 0 0 160 0 160 155 0 155 0 0 -160z m340 0 l0 -160 -160 0 -160 0 0 160
0 160 160 0 160 0 0 -160z m320 0 l0 -160 -155 0 -155 0 0 160 0 160 155 0
155 0 0 -160z m340 0 l0 -160 -160 0 -160 0 0 160 0 160 160 0 160 0 0 -160z
m320 0 l0 -160 -155 0 -155 0 0 160 0 160 155 0 155 0 0 -160z m340 0 l0 -160
-160 0 -160 0 0 160 0 160 160 0 160 0 0 -160z m320 0 l0 -160 -155 0 -155 0
0 160 0 160 155 0 155 0 0 -160z m170 0 l0 -160 -75 0 -75 0 0 160 0 160 75 0
75 0 0 -160z m-12112 -105 c40 -12 52 -20 52 -35 0 -19 -8 -20 -156 -20 l-155
0 3 27 c2 19 10 29 28 34 46 13 176 9 228 -6z m-278 -80 c0 -36 -2 -65 -5 -65
-14 0 -83 40 -95 55 -12 15 -12 18 5 28 44 28 80 47 87 47 5 0 8 -29 8 -65z
m375 35 c3 -5 -1 -10 -9 -10 -9 0 -16 5 -16 10 0 6 4 10 9 10 6 0 13 -4 16
-10z m2265 -180 l0 -161 -152 3 -153 3 -3 152 -3 152 153 4 c84 1 154 4 156 5
1 1 2 -70 2 -158z m660 0 l0 -161 -152 3 -153 3 -3 152 -3 152 153 4 c84 1
154 4 156 5 1 1 2 -70 2 -158z m660 0 l0 -161 -152 3 -153 3 -3 152 -3 152
153 4 c84 1 154 4 156 5 1 1 2 -70 2 -158z m660 0 l0 -161 -152 3 -153 3 -3
152 -3 152 153 4 c84 1 154 4 156 5 1 1 2 -70 2 -158z m6280 0 l0 -161 -152 3
-153 3 -3 152 -3 152 153 4 c84 1 154 4 156 5 1 1 2 -70 2 -158z m660 0 l0
-161 -152 3 -153 3 -3 152 -3 152 153 4 c84 1 154 4 156 5 1 1 2 -70 2 -158z
m660 0 l0 -161 -152 3 -153 3 -3 152 -3 152 153 4 c84 1 154 4 156 5 1 1 2
-70 2 -158z m-11890 -5 l0 -155 -155 0 -155 0 0 155 0 155 155 0 155 0 0 -155z
m91 100 c-6 -118 73 -196 187 -185 l52 6 0 -38 0 -38 -155 0 -155 0 0 156 0
155 37 -3 37 -3 -3 -50z m569 -100 l0 -155 -155 0 -155 0 0 41 c0 33 7 49 34
80 38 41 51 88 43 150 l-5 39 119 0 119 0 0 -155z m330 0 l0 -155 -155 0 -155
0 0 155 0 155 155 0 155 0 0 -155z m330 0 l0 -155 -155 0 -155 0 0 155 0 155
155 0 155 0 0 -155z m330 0 l0 -155 -155 0 -155 0 0 155 0 155 155 0 155 0 0
-155z m338 3 l-3 -153 -157 -3 -158 -3 0 156 0 155 160 0 161 0 -3 -152z m660
0 l-3 -153 -157 -3 -158 -3 0 156 0 155 160 0 161 0 -3 -152z m660 0 l-3 -153
-157 -3 -158 -3 0 156 0 155 160 0 161 0 -3 -152z m660 0 l-3 -153 -157 -3
-158 -3 0 156 0 155 160 0 161 0 -3 -152z m660 0 l-3 -153 -157 -3 -158 -3 0
156 0 155 160 0 161 0 -3 -152z m332 -3 l0 -156 -157 3 -158 3 -3 153 -3 152
161 0 160 0 0 -155z m328 3 l-3 -153 -152 -3 -153 -3 0 156 0 155 155 0 156 0
-3 -152z m332 -3 l0 -156 -157 3 -158 3 -3 153 -3 152 161 0 160 0 0 -155z
m328 3 l-3 -153 -152 -3 -153 -3 0 156 0 155 155 0 156 0 -3 -152z m332 -3 l0
-156 -157 3 -158 3 -3 153 -3 152 161 0 160 0 0 -155z m328 3 l-3 -153 -152
-3 -153 -3 0 156 0 155 155 0 156 0 -3 -152z m332 -3 l0 -156 -157 3 -158 3
-3 153 -3 152 161 0 160 0 0 -155z m328 3 l-3 -153 -152 -3 -153 -3 0 156 0
155 155 0 156 0 -3 -152z m332 -3 l0 -156 -157 3 -158 3 -3 153 -3 152 161 0
160 0 0 -155z m330 0 l0 -155 -155 0 -155 0 0 155 0 155 155 0 155 0 0 -155z
m330 0 l0 -155 -155 0 -155 0 0 155 0 155 155 0 155 0 0 -155z m330 0 l0 -155
-155 0 -155 0 0 155 0 155 155 0 155 0 0 -155z m330 0 l0 -155 -155 0 -155 0
0 155 0 155 155 0 155 0 0 -155z m330 0 l0 -155 -155 0 -155 0 0 155 0 155
155 0 155 0 0 -155z m330 0 l0 -155 -155 0 -155 0 0 155 0 155 155 0 155 0 0
-155z m330 0 l0 -155 -155 0 -155 0 0 155 0 155 155 0 155 0 0 -155z m338 3
l-3 -153 -157 -3 -158 -3 0 156 0 155 160 0 161 0 -3 -152z m660 0 l-3 -153
-157 -3 -158 -3 0 156 0 155 160 0 161 0 -3 -152z m660 0 l-3 -153 -157 -3
-158 -3 0 156 0 155 160 0 161 0 -3 -152z m492 -3 l0 -155 -75 0 -75 0 0 155
0 155 75 0 75 0 0 -155z m-12417 -29 c27 -6 27 -7 27 -85 l0 -78 -42 -12 c-24
-7 -67 -26 -96 -42 -29 -16 -57 -27 -62 -24 -5 3 -16 28 -25 56 -21 62 -16
162 10 226 l17 41 71 -38 c40 -21 84 -41 100 -44z m357 -152 c0 -13 -7 -14
-42 -7 -24 4 -94 8 -155 8 -62 0 -113 3 -113 7 0 5 70 8 155 8 135 0 155 -2
155 -16z m330 -42 l0 -59 -52 5 c-29 2 -64 -1 -78 -6 -20 -7 -34 -3 -75 22
-27 18 -62 37 -77 44 -18 7 -28 19 -28 32 0 19 6 20 155 20 l155 0 0 -58z
m330 -102 l0 -160 -115 0 -115 0 0 41 c0 49 -24 102 -56 128 -21 16 -24 27
-24 85 l0 66 155 0 155 0 0 -160z m330 0 l0 -160 -155 0 -155 0 0 160 0 160
155 0 155 0 0 -160z m330 0 l0 -160 -155 0 -155 0 0 160 0 160 155 0 155 0 0
-160z m330 0 l0 -160 -155 0 -155 0 0 160 0 160 155 0 155 0 0 -160z m340 0
l0 -160 -160 0 -160 0 0 160 0 160 160 0 160 0 0 -160z m320 0 l0 -160 -155 0
-155 0 0 160 0 160 155 0 155 0 0 -160z m340 0 l0 -160 -160 0 -160 0 0 160 0
160 160 0 160 0 0 -160z m320 0 l0 -160 -155 0 -155 0 0 160 0 160 155 0 155
0 0 -160z m340 0 l0 -160 -160 0 -160 0 0 160 0 160 160 0 160 0 0 -160z m320
0 l0 -160 -155 0 -155 0 0 160 0 160 155 0 155 0 0 -160z m340 0 l0 -160 -160
0 -160 0 0 160 0 160 160 0 160 0 0 -160z m320 0 l0 -160 -155 0 -155 0 0 160
0 160 155 0 155 0 0 -160z m340 0 l0 -160 -160 0 -160 0 0 160 0 160 160 0
160 0 0 -160z m330 0 l0 -160 -160 0 -160 0 0 160 0 160 160 0 160 0 0 -160z
m330 0 l0 -160 -155 0 -155 0 0 160 0 160 155 0 155 0 0 -160z m330 0 l0 -160
-160 0 -160 0 0 160 0 160 160 0 160 0 0 -160z m330 0 l0 -160 -155 0 -155 0
0 160 0 160 155 0 155 0 0 -160z m330 0 l0 -160 -160 0 -160 0 0 160 0 160
160 0 160 0 0 -160z m330 0 l0 -160 -155 0 -155 0 0 160 0 160 155 0 155 0 0
-160z m330 0 l0 -160 -160 0 -160 0 0 160 0 160 160 0 160 0 0 -160z m330 0
l0 -160 -155 0 -155 0 0 160 0 160 155 0 155 0 0 -160z m330 0 l0 -160 -160 0
-160 0 0 160 0 160 160 0 160 0 0 -160z m330 0 l0 -160 -155 0 -155 0 0 160 0
160 155 0 155 0 0 -160z m330 0 l0 -160 -155 0 -155 0 0 160 0 160 155 0 155
0 0 -160z m330 0 l0 -160 -155 0 -155 0 0 160 0 160 155 0 155 0 0 -160z m330
0 l0 -160 -155 0 -155 0 0 160 0 160 155 0 155 0 0 -160z m330 0 l0 -160 -155
0 -155 0 0 160 0 160 155 0 155 0 0 -160z m330 0 l0 -160 -155 0 -155 0 0 160
0 160 155 0 155 0 0 -160z m330 0 l0 -160 -155 0 -155 0 0 160 0 160 155 0
155 0 0 -160z m340 0 l0 -160 -160 0 -160 0 0 160 0 160 160 0 160 0 0 -160z
m320 0 l0 -160 -155 0 -155 0 0 160 0 160 155 0 155 0 0 -160z m340 0 l0 -160
-160 0 -160 0 0 160 0 160 160 0 160 0 0 -160z m320 0 l0 -160 -155 0 -155 0
0 160 0 160 155 0 155 0 0 -160z m340 0 l0 -160 -160 0 -160 0 0 160 0 160
160 0 160 0 0 -160z m320 0 l0 -160 -155 0 -155 0 0 160 0 160 155 0 155 0 0
-160z m170 0 l0 -160 -75 0 -75 0 0 160 0 160 75 0 75 0 0 -160z m-12153 36
c23 -4 54 -11 68 -18 24 -11 25 -15 25 -95 l0 -83 -155 0 -155 0 0 89 c0 57 4
92 11 97 15 9 117 22 144 18 11 -1 39 -5 62 -8z m-241 -154 c-8 -7 -98 50
-103 65 -3 6 20 26 49 42 l53 31 3 -66 c2 -37 1 -69 -2 -72z m429 50 c-3 -8
-5 -31 -5 -53 0 -38 -1 -39 -35 -39 l-35 0 0 81 0 80 40 -28 c23 -16 38 -34
35 -41z m-462 -162 l37 -12 0 -203 c0 -190 -1 -204 -17 -198 -75 28 -172 128
-202 209 -27 71 -27 157 0 228 l20 55 62 -33 c34 -19 79 -39 100 -46z m367
-106 l0 -155 -152 3 -153 3 -3 145 c-1 79 -1 149 1 155 3 6 57 9 156 7 l151
-3 0 -155z m119 119 c39 -54 89 -76 157 -71 l54 5 0 -104 0 -103 -155 0 -155
0 0 158 0 157 35 -1 c29 -1 40 -8 64 -41z m541 -119 l0 -154 -155 0 -155 0 0
108 c0 97 2 111 20 127 12 10 29 32 40 49 l18 31 116 -3 116 -3 0 -155z m330
4 l0 -158 -155 0 -155 0 0 158 0 157 155 0 155 0 0 -157z m330 -3 l0 -155
-155 0 -155 0 0 158 0 157 155 -3 155 -3 0 -154z m330 3 l0 -158 -155 0 -155
0 0 158 0 157 155 0 155 0 0 -157z m335 0 l0 -153 -157 -3 -158 -3 0 158 0
158 157 -2 158 -2 0 -153z m325 -1 l0 -158 -152 3 -153 3 -3 145 c-1 79 -1
149 1 155 3 6 60 10 156 10 l151 0 0 -158z m335 1 l0 -153 -157 -3 -158 -3 0
158 0 158 157 -2 158 -2 0 -153z m325 -1 l0 -158 -152 3 -153 3 -3 145 c-1 79
-1 149 1 155 3 6 60 10 156 10 l151 0 0 -158z m335 1 l0 -153 -157 -3 -158 -3
0 158 0 158 157 -2 158 -2 0 -153z m325 -1 l0 -158 -152 3 -153 3 -3 145 c-1
79 -1 149 1 155 3 6 60 10 156 10 l151 0 0 -158z m335 1 l0 -153 -157 -3 -158
-3 0 158 0 158 157 -2 158 -2 0 -153z m325 -1 l0 -158 -152 3 -153 3 -3 145
c-1 79 -1 149 1 155 3 6 60 10 156 10 l151 0 0 -158z m335 1 l0 -153 -157 -3
-158 -3 0 158 0 158 157 -2 158 -2 0 -153z m335 -4 l0 -155 -157 3 -158 3 -3
145 c-1 79 -1 149 1 155 3 6 58 9 161 7 l156 -3 0 -155z m325 4 l0 -153 -152
-3 -153 -3 0 158 0 158 152 -2 153 -2 0 -153z m335 -4 l0 -155 -157 3 -158 3
-3 145 c-1 79 -1 149 1 155 3 6 58 9 161 7 l156 -3 0 -155z m325 4 l0 -153
-152 -3 -153 -3 0 158 0 158 152 -2 153 -2 0 -153z m335 -4 l0 -155 -157 3
-158 3 -3 145 c-1 79 -1 149 1 155 3 6 58 9 161 7 l156 -3 0 -155z m325 4 l0
-153 -152 -3 -153 -3 0 158 0 158 152 -2 153 -2 0 -153z m335 -4 l0 -155 -157
3 -158 3 -3 145 c-1 79 -1 149 1 155 3 6 58 9 161 7 l156 -3 0 -155z m325 4
l0 -153 -152 -3 -153 -3 0 158 0 158 152 -2 153 -2 0 -153z m335 -4 l0 -155
-157 3 -158 3 -3 145 c-1 79 -1 149 1 155 3 6 58 9 161 7 l156 -3 0 -155z
m330 4 l0 -158 -155 0 -155 0 0 158 0 157 155 0 155 0 0 -157z m330 -3 l0
-155 -155 0 -155 0 0 158 0 157 155 -3 155 -3 0 -154z m330 3 l0 -158 -155 0
-155 0 0 158 0 157 155 0 155 0 0 -157z m330 -3 l0 -155 -155 0 -155 0 0 158
0 157 155 -3 155 -3 0 -154z m330 3 l0 -158 -155 0 -155 0 0 158 0 157 155 0
155 0 0 -157z m330 -3 l0 -155 -155 0 -155 0 0 158 0 157 155 -3 155 -3 0
-154z m330 3 l0 -158 -155 0 -155 0 0 158 0 157 155 0 155 0 0 -157z m335 0
l0 -153 -157 -3 -158 -3 0 158 0 158 157 -2 158 -2 0 -153z m325 -1 l0 -158
-152 3 -153 3 -3 145 c-1 79 -1 149 1 155 3 6 60 10 156 10 l151 0 0 -158z
m335 1 l0 -153 -157 -3 -158 -3 0 158 0 158 157 -2 158 -2 0 -153z m325 -1 l0
-158 -152 3 -153 3 -3 145 c-1 79 -1 149 1 155 3 6 60 10 156 10 l151 0 0
-158z m335 1 l0 -153 -157 -3 -158 -3 0 158 0 158 157 -2 158 -2 0 -153z m325
-1 l0 -158 -152 3 -153 3 -3 145 c-1 79 -1 149 1 155 3 6 60 10 156 10 l151 0
0 -158z m170 1 l0 -158 -75 0 -75 0 0 158 0 157 75 0 75 0 0 -157z m-12060
-328 l0 -160 -155 0 -155 0 0 160 0 160 155 0 155 0 0 -160z m330 0 l0 -160
-155 0 -155 0 0 160 0 160 155 0 155 0 0 -160z m330 0 l0 -160 -155 0 -155 0
0 160 0 160 155 0 155 0 0 -160z m330 0 l0 -160 -155 0 -155 0 0 160 0 160
155 0 155 0 0 -160z m330 0 l0 -160 -155 0 -155 0 0 160 0 160 155 0 155 0 0
-160z m330 0 l0 -160 -155 0 -155 0 0 160 0 160 155 0 155 0 0 -160z m340 0
l0 -160 -160 0 -160 0 0 160 0 160 160 0 160 0 0 -160z m320 0 l0 -160 -155 0
-155 0 0 160 0 160 155 0 155 0 0 -160z m340 0 l0 -160 -160 0 -160 0 0 160 0
160 160 0 160 0 0 -160z m320 0 l0 -160 -155 0 -155 0 0 160 0 160 155 0 155
0 0 -160z m340 0 l0 -160 -160 0 -160 0 0 160 0 160 160 0 160 0 0 -160z m320
0 l0 -160 -155 0 -155 0 0 160 0 160 155 0 155 0 0 -160z m340 0 l0 -160 -160
0 -160 0 0 160 0 160 160 0 160 0 0 -160z m320 0 l0 -160 -155 0 -155 0 0 160
0 160 155 0 155 0 0 -160z m340 0 l0 -160 -160 0 -160 0 0 160 0 160 160 0
160 0 0 -160z m330 0 l0 -160 -160 0 -160 0 0 160 0 160 160 0 160 0 0 -160z
m330 0 l0 -160 -155 0 -155 0 0 160 0 160 155 0 155 0 0 -160z m330 0 l0 -160
-160 0 -160 0 0 160 0 160 160 0 160 0 0 -160z m330 0 l0 -160 -155 0 -155 0
0 160 0 160 155 0 155 0 0 -160z m330 0 l0 -160 -160 0 -160 0 0 160 0 160
160 0 160 0 0 -160z m330 0 l0 -160 -155 0 -155 0 0 160 0 160 155 0 155 0 0
-160z m330 0 l0 -160 -160 0 -160 0 0 160 0 160 160 0 160 0 0 -160z m330 0
l0 -160 -155 0 -155 0 0 160 0 160 155 0 155 0 0 -160z m330 0 l0 -160 -160 0
-160 0 0 160 0 160 160 0 160 0 0 -160z m330 0 l0 -160 -155 0 -155 0 0 160 0
160 155 0 155 0 0 -160z m330 0 l0 -160 -155 0 -155 0 0 160 0 160 155 0 155
0 0 -160z m330 0 l0 -160 -155 0 -155 0 0 160 0 160 155 0 155 0 0 -160z m330
0 l0 -160 -155 0 -155 0 0 160 0 160 155 0 155 0 0 -160z m330 0 l0 -160 -155
0 -155 0 0 160 0 160 155 0 155 0 0 -160z m330 0 l0 -160 -155 0 -155 0 0 160
0 160 155 0 155 0 0 -160z m330 0 l0 -160 -155 0 -155 0 0 160 0 160 155 0
155 0 0 -160z m340 0 l0 -160 -160 0 -160 0 0 160 0 160 160 0 160 0 0 -160z
m320 0 l0 -160 -155 0 -155 0 0 160 0 160 155 0 155 0 0 -160z m340 0 l0 -160
-160 0 -160 0 0 160 0 160 160 0 160 0 0 -160z m320 0 l0 -160 -155 0 -155 0
0 160 0 160 155 0 155 0 0 -160z m340 0 l0 -160 -160 0 -160 0 0 160 0 160
160 0 160 0 0 -160z m320 0 l0 -160 -155 0 -155 0 0 160 0 160 155 0 155 0 0
-160z m170 0 l0 -160 -75 0 -75 0 0 160 0 160 75 0 75 0 0 -160z m-12060 -255
l0 -85 -155 0 -155 0 0 78 c0 43 3 82 7 85 3 4 73 7 155 7 l148 0 0 -85z m330
0 l0 -85 -155 0 -155 0 0 85 0 85 155 0 155 0 0 -85z m330 0 l0 -85 -155 0
-155 0 0 85 0 85 155 0 155 0 0 -85z m330 0 l0 -85 -155 0 -155 0 0 85 0 85
155 0 155 0 0 -85z m330 0 l0 -85 -155 0 -155 0 0 85 0 85 155 0 155 0 0 -85z
m330 0 l0 -85 -155 0 -155 0 0 85 0 85 155 0 155 0 0 -85z m338 -2 l3 -83
-161 0 -160 0 0 85 0 86 158 -3 157 -3 3 -82z m322 2 l0 -85 -155 0 -155 0 0
78 c0 43 3 82 7 85 3 4 73 7 155 7 l148 0 0 -85z m338 -2 l3 -83 -161 0 -160
0 0 85 0 86 158 -3 157 -3 3 -82z m322 2 l0 -85 -155 0 -155 0 0 78 c0 43 3
82 7 85 3 4 73 7 155 7 l148 0 0 -85z m338 -2 l3 -83 -161 0 -160 0 0 85 0 86
158 -3 157 -3 3 -82z m322 2 l0 -85 -155 0 -155 0 0 78 c0 43 3 82 7 85 3 4
73 7 155 7 l148 0 0 -85z m338 -2 l3 -83 -161 0 -160 0 0 85 0 86 158 -3 157
-3 3 -82z m322 2 l0 -85 -155 0 -155 0 0 78 c0 43 3 82 7 85 3 4 73 7 155 7
l148 0 0 -85z m338 -2 l3 -83 -161 0 -160 0 0 85 0 86 158 -3 157 -3 3 -82z
m332 2 l0 -85 -160 0 -160 0 0 78 c0 43 3 82 7 85 3 4 75 7 160 7 l153 0 0
-85z m328 -2 l3 -83 -156 0 -155 0 0 85 0 86 153 -3 152 -3 3 -82z m332 2 l0
-85 -160 0 -160 0 0 78 c0 43 3 82 7 85 3 4 75 7 160 7 l153 0 0 -85z m328 -2
l3 -83 -156 0 -155 0 0 85 0 86 153 -3 152 -3 3 -82z m332 2 l0 -85 -160 0
-160 0 0 78 c0 43 3 82 7 85 3 4 75 7 160 7 l153 0 0 -85z m328 -2 l3 -83
-156 0 -155 0 0 85 0 86 153 -3 152 -3 3 -82z m332 2 l0 -85 -160 0 -160 0 0
78 c0 43 3 82 7 85 3 4 75 7 160 7 l153 0 0 -85z m328 -2 l3 -83 -156 0 -155
0 0 85 0 86 153 -3 152 -3 3 -82z m332 2 l0 -85 -160 0 -160 0 0 78 c0 43 3
82 7 85 3 4 75 7 160 7 l153 0 0 -85z m330 0 l0 -85 -155 0 -155 0 0 85 0 85
155 0 155 0 0 -85z m330 0 l0 -85 -155 0 -155 0 0 85 0 85 155 0 155 0 0 -85z
m330 0 l0 -85 -155 0 -155 0 0 85 0 85 155 0 155 0 0 -85z m330 0 l0 -85 -155
0 -155 0 0 85 0 85 155 0 155 0 0 -85z m330 0 l0 -85 -155 0 -155 0 0 85 0 85
155 0 155 0 0 -85z m330 0 l0 -85 -155 0 -155 0 0 85 0 85 155 0 155 0 0 -85z
m330 0 l0 -85 -155 0 -155 0 0 85 0 85 155 0 155 0 0 -85z m338 -2 l3 -83
-161 0 -160 0 0 85 0 86 158 -3 157 -3 3 -82z m322 2 l0 -85 -155 0 -155 0 0
78 c0 43 3 82 7 85 3 4 73 7 155 7 l148 0 0 -85z m338 -2 l3 -83 -161 0 -160
0 0 85 0 86 158 -3 157 -3 3 -82z m322 2 l0 -85 -155 0 -155 0 0 78 c0 43 3
82 7 85 3 4 73 7 155 7 l148 0 0 -85z m338 -2 l3 -83 -161 0 -160 0 0 85 0 86
158 -3 157 -3 3 -82z m322 2 l0 -85 -155 0 -155 0 0 78 c0 43 3 82 7 85 3 4
73 7 155 7 l148 0 0 -85z m170 0 l0 -85 -75 0 -75 0 0 85 0 85 75 0 75 0 0
-85z"/>
</g>
</svg>
